<?xml version="1.0" encoding="utf-8"?>
<!-- Generator: Adobe Illustrator 26.3.1, SVG Export Plug-In . SVG Version: 6.00 Build 0)  -->
<svg version="1.1" id="Calque_1" xmlns="http://www.w3.org/2000/svg" xmlns:xlink="http://www.w3.org/1999/xlink" x="0px" y="0px"
	 viewBox="0 0 32 32" style="enable-background:new 0 0 32 32;" xml:space="preserve">
<style type="text/css">
	.st0{fill:#E10A17;}
	.st1{fill:#1D1E1C;}
	.st2{fill:#FFFFFF;}
	.st3{fill:#4CC0E7;}
</style>
<g>
	<g id="XMLID_00000088829862159285249380000015736629789209313920_">
		<g>
			<rect x="30.94" y="25.49" class="st0" width="0.97" height="0.97"/>
			<rect x="30.94" y="24.52" class="st0" width="0.97" height="0.97"/>
			<rect x="30.94" y="23.55" class="st0" width="0.97" height="0.97"/>
			<rect x="30.94" y="22.58" class="st0" width="0.97" height="0.97"/>
			<rect x="30.94" y="21.61" class="st0" width="0.97" height="0.97"/>
			<rect x="30.94" y="20.64" class="st0" width="0.97" height="0.97"/>
			<rect x="30.94" y="19.67" class="st0" width="0.97" height="0.97"/>
			<rect x="30.94" y="18.7" class="st0" width="0.97" height="0.97"/>
			<rect x="30.94" y="17.73" class="st0" width="0.97" height="0.97"/>
			<rect x="30.94" y="16.76" class="st0" width="0.97" height="0.97"/>
			<rect x="30.94" y="15.79" class="st0" width="0.97" height="0.97"/>
			<rect x="30.94" y="14.82" class="st0" width="0.97" height="0.97"/>
			<rect x="30.94" y="13.85" class="st0" width="0.97" height="0.97"/>
			<rect x="30.94" y="12.88" class="st0" width="0.97" height="0.97"/>
			<rect x="30.94" y="11.91" class="st0" width="0.97" height="0.97"/>
			<rect x="30.94" y="10.94" class="st1" width="0.97" height="0.97"/>
			<rect x="29.97" y="26.46" class="st0" width="0.97" height="0.97"/>
			<rect x="29.97" y="25.49" class="st0" width="0.97" height="0.97"/>
			<rect x="29.97" y="24.52" class="st0" width="0.97" height="0.97"/>
			<rect x="29.97" y="23.55" class="st0" width="0.97" height="0.97"/>
			<rect x="29.97" y="22.58" class="st0" width="0.97" height="0.97"/>
			<rect x="29.97" y="21.61" class="st0" width="0.97" height="0.97"/>
			<rect x="29.97" y="20.64" class="st0" width="0.97" height="0.97"/>
			<rect x="29.97" y="19.67" class="st0" width="0.97" height="0.97"/>
			<rect x="29.97" y="18.7" class="st0" width="0.97" height="0.97"/>
			<rect x="29.97" y="17.73" class="st0" width="0.97" height="0.97"/>
			<rect x="29.97" y="16.76" class="st0" width="0.97" height="0.97"/>
			<rect x="29.97" y="15.79" class="st0" width="0.97" height="0.97"/>
			<rect x="29.97" y="14.82" class="st0" width="0.97" height="0.97"/>
			<rect x="29.97" y="13.85" class="st1" width="0.97" height="0.97"/>
			<rect x="29.97" y="12.88" class="st0" width="0.97" height="0.97"/>
			<rect x="29.97" y="11.91" class="st0" width="0.97" height="0.97"/>
			<rect x="29.97" y="10.94" class="st1" width="0.97" height="0.97"/>
			<rect x="29.97" y="9.97" class="st1" width="0.97" height="0.97"/>
			<rect x="29" y="27.43" class="st0" width="0.97" height="0.97"/>
			<rect x="29" y="26.46" class="st0" width="0.97" height="0.97"/>
			<rect x="29" y="25.49" class="st0" width="0.97" height="0.97"/>
			<rect x="29" y="24.52" class="st0" width="0.97" height="0.97"/>
			<rect x="29" y="23.55" class="st1" width="0.97" height="0.97"/>
			<rect x="29" y="22.58" class="st1" width="0.97" height="0.97"/>
			<rect x="29" y="21.61" class="st0" width="0.97" height="0.97"/>
			<rect x="29" y="20.64" class="st0" width="0.97" height="0.97"/>
			<rect x="29" y="19.67" class="st0" width="0.97" height="0.97"/>
			<rect x="29" y="18.7" class="st0" width="0.97" height="0.97"/>
			<rect x="29" y="17.73" class="st0" width="0.97" height="0.97"/>
			<rect x="29" y="16.76" class="st0" width="0.97" height="0.97"/>
			<rect x="29" y="15.79" class="st0" width="0.97" height="0.97"/>
			<rect x="29" y="14.82" class="st1" width="0.97" height="0.97"/>
			<rect x="29" y="13.85" class="st0" width="0.97" height="0.97"/>
			<rect x="29" y="12.88" class="st1" width="0.97" height="0.97"/>
			<rect x="29" y="11.91" class="st0" width="0.97" height="0.97"/>
			<rect x="29" y="10.94" class="st0" width="0.97" height="0.97"/>
			<rect x="29" y="9.97" class="st1" width="0.97" height="0.97"/>
			<rect x="29" y="9" class="st1" width="0.97" height="0.97"/>
			<rect x="28.04" y="27.43" class="st0" width="0.96" height="0.97"/>
			<rect x="28.04" y="26.46" class="st0" width="0.96" height="0.97"/>
			<rect x="28.04" y="25.49" class="st0" width="0.96" height="0.97"/>
			<rect x="28.04" y="24.52" class="st0" width="0.96" height="0.97"/>
			<rect x="28.04" y="23.55" class="st0" width="0.96" height="0.97"/>
			<rect x="28.04" y="22.58" class="st0" width="0.96" height="0.97"/>
			<rect x="28.04" y="21.61" class="st0" width="0.96" height="0.97"/>
			<rect x="28.04" y="20.64" class="st0" width="0.96" height="0.97"/>
			<rect x="28.04" y="19.67" class="st0" width="0.96" height="0.97"/>
			<rect x="28.04" y="18.7" class="st0" width="0.96" height="0.97"/>
			<rect x="28.04" y="17.73" class="st0" width="0.96" height="0.97"/>
			<rect x="28.04" y="16.76" class="st0" width="0.96" height="0.97"/>
			<rect x="28.04" y="15.79" class="st0" width="0.96" height="0.97"/>
			<rect x="28.04" y="14.82" class="st0" width="0.96" height="0.97"/>
			<rect x="28.04" y="13.85" class="st1" width="0.96" height="0.97"/>
			<rect x="28.04" y="12.88" class="st0" width="0.96" height="0.97"/>
			<rect x="28.04" y="11.91" class="st0" width="0.96" height="0.97"/>
			<rect x="28.04" y="10.94" class="st0" width="0.96" height="0.97"/>
			<rect x="28.04" y="9.97" class="st0" width="0.96" height="0.97"/>
			<rect x="28.04" y="9" class="st1" width="0.96" height="0.97"/>
			<rect x="27.07" y="26.46" class="st0" width="0.97" height="0.97"/>
			<rect x="27.07" y="25.49" class="st0" width="0.97" height="0.97"/>
			<rect x="27.07" y="24.52" class="st0" width="0.97" height="0.97"/>
			<rect x="27.07" y="23.55" class="st0" width="0.97" height="0.97"/>
			<rect x="27.07" y="22.58" class="st0" width="0.97" height="0.97"/>
			<rect x="27.07" y="21.61" class="st0" width="0.97" height="0.97"/>
			<rect x="27.07" y="20.64" class="st0" width="0.97" height="0.97"/>
			<rect x="27.07" y="19.67" class="st0" width="0.97" height="0.97"/>
			<rect x="27.07" y="18.7" class="st0" width="0.97" height="0.97"/>
			<rect x="27.07" y="17.73" class="st0" width="0.97" height="0.97"/>
			<rect x="27.07" y="16.76" class="st0" width="0.97" height="0.97"/>
			<rect x="27.07" y="15.79" class="st0" width="0.97" height="0.97"/>
			<rect x="27.07" y="14.82" class="st0" width="0.97" height="0.97"/>
			<rect x="27.07" y="13.85" class="st0" width="0.97" height="0.97"/>
			<rect x="27.07" y="12.88" class="st0" width="0.97" height="0.97"/>
			<rect x="27.07" y="11.91" class="st0" width="0.97" height="0.97"/>
			<rect x="27.07" y="10.94" class="st0" width="0.97" height="0.97"/>
			<rect x="27.07" y="9.97" class="st0" width="0.97" height="0.97"/>
			<rect x="26.1" y="27.43" class="st1" width="0.97" height="0.97"/>
			<rect x="26.1" y="26.46" class="st1" width="0.97" height="0.97"/>
			<rect x="26.1" y="25.49" class="st1" width="0.97" height="0.97"/>
			<rect x="26.1" y="24.52" class="st1" width="0.97" height="0.97"/>
			<rect x="26.1" y="23.55" class="st1" width="0.97" height="0.97"/>
			<rect x="26.1" y="22.58" class="st1" width="0.97" height="0.97"/>
			<rect x="26.1" y="21.61" class="st1" width="0.97" height="0.97"/>
			<rect x="26.1" y="20.64" class="st1" width="0.97" height="0.97"/>
			<rect x="26.1" y="19.67" class="st1" width="0.97" height="0.97"/>
			<rect x="26.1" y="18.7" class="st1" width="0.97" height="0.97"/>
			<rect x="26.1" y="17.73" class="st1" width="0.97" height="0.97"/>
			<rect x="26.1" y="16.76" class="st1" width="0.97" height="0.97"/>
			<rect x="26.1" y="15.79" class="st1" width="0.97" height="0.97"/>
			<rect x="26.1" y="14.82" class="st1" width="0.97" height="0.97"/>
			<rect x="26.1" y="13.85" class="st1" width="0.97" height="0.97"/>
			<rect x="26.1" y="12.88" class="st1" width="0.97" height="0.97"/>
			<rect x="26.1" y="11.91" class="st1" width="0.97" height="0.97"/>
			<rect x="26.1" y="10.94" class="st1" width="0.97" height="0.97"/>
			<rect x="26.1" y="9.97" class="st1" width="0.97" height="0.97"/>
			<rect x="26.1" y="9" class="st1" width="0.97" height="0.97"/>
			<rect x="25.13" y="27.43" class="st1" width="0.97" height="0.97"/>
			<rect x="25.13" y="26.46" class="st1" width="0.97" height="0.97"/>
			<rect x="25.13" y="25.49" class="st2" width="0.97" height="0.97"/>
			<rect x="25.13" y="24.52" class="st2" width="0.97" height="0.97"/>
			<rect x="25.13" y="23.55" class="st2" width="0.97" height="0.97"/>
			<rect x="25.13" y="22.58" class="st2" width="0.97" height="0.97"/>
			<rect x="25.13" y="21.61" class="st2" width="0.97" height="0.97"/>
			<rect x="25.13" y="20.64" class="st2" width="0.97" height="0.97"/>
			<rect x="25.13" y="19.67" class="st2" width="0.97" height="0.97"/>
			<rect x="25.13" y="18.7" class="st2" width="0.97" height="0.97"/>
			<rect x="25.13" y="17.73" class="st2" width="0.97" height="0.97"/>
			<rect x="25.13" y="16.76" class="st2" width="0.97" height="0.97"/>
			<rect x="25.13" y="15.79" class="st2" width="0.97" height="0.97"/>
			<rect x="25.13" y="14.82" class="st2" width="0.97" height="0.97"/>
			<rect x="25.13" y="13.85" class="st2" width="0.97" height="0.97"/>
			<rect x="25.13" y="12.88" class="st2" width="0.97" height="0.97"/>
			<rect x="25.13" y="11.91" class="st2" width="0.97" height="0.97"/>
			<rect x="25.13" y="10.94" class="st2" width="0.97" height="0.97"/>
			<rect x="25.13" y="9.97" class="st1" width="0.97" height="0.97"/>
			<rect x="25.13" y="9" class="st1" width="0.97" height="0.97"/>
			<rect x="24.16" y="27.43" class="st1" width="0.97" height="0.97"/>
			<rect x="24.16" y="26.46" class="st1" width="0.97" height="0.97"/>
			<rect x="24.16" y="25.49" class="st2" width="0.97" height="0.97"/>
			<rect x="24.16" y="24.52" class="st2" width="0.97" height="0.97"/>
			<rect x="24.16" y="23.55" class="st2" width="0.97" height="0.97"/>
			<rect x="24.16" y="22.58" class="st2" width="0.97" height="0.97"/>
			<rect x="24.16" y="21.61" class="st2" width="0.97" height="0.97"/>
			<rect x="24.16" y="20.64" class="st2" width="0.97" height="0.97"/>
			<rect x="24.16" y="19.67" class="st2" width="0.97" height="0.97"/>
			<rect x="24.16" y="18.7" class="st2" width="0.97" height="0.97"/>
			<rect x="24.16" y="17.73" class="st2" width="0.97" height="0.97"/>
			<rect x="24.16" y="16.76" class="st2" width="0.97" height="0.97"/>
			<rect x="24.16" y="15.79" class="st2" width="0.97" height="0.97"/>
			<rect x="24.16" y="14.82" class="st2" width="0.97" height="0.97"/>
			<rect x="24.16" y="13.85" class="st2" width="0.97" height="0.97"/>
			<rect x="24.16" y="12.88" class="st2" width="0.97" height="0.97"/>
			<rect x="24.16" y="11.91" class="st2" width="0.97" height="0.97"/>
			<rect x="24.16" y="10.94" class="st2" width="0.97" height="0.97"/>
			<rect x="24.16" y="9.97" class="st1" width="0.97" height="0.97"/>
			<rect x="24.16" y="9" class="st1" width="0.97" height="0.97"/>
			<rect x="23.19" y="27.43" class="st1" width="0.97" height="0.97"/>
			<rect x="23.19" y="26.46" class="st1" width="0.97" height="0.97"/>
			<rect x="23.19" y="25.49" class="st2" width="0.97" height="0.97"/>
			<rect x="23.19" y="24.52" class="st2" width="0.97" height="0.97"/>
			<rect x="23.19" y="23.55" class="st2" width="0.97" height="0.97"/>
			<rect x="23.19" y="22.58" class="st2" width="0.97" height="0.97"/>
			<rect x="23.19" y="21.61" class="st2" width="0.97" height="0.97"/>
			<rect x="23.19" y="20.64" class="st2" width="0.97" height="0.97"/>
			<rect x="23.19" y="19.67" class="st2" width="0.97" height="0.97"/>
			<rect x="23.19" y="18.7" class="st2" width="0.97" height="0.97"/>
			<rect x="23.19" y="17.73" class="st2" width="0.97" height="0.97"/>
			<rect x="23.19" y="16.76" class="st2" width="0.97" height="0.97"/>
			<rect x="23.19" y="15.79" class="st2" width="0.97" height="0.97"/>
			<rect x="23.19" y="14.82" class="st2" width="0.97" height="0.97"/>
			<rect x="23.19" y="13.85" class="st2" width="0.97" height="0.97"/>
			<rect x="23.19" y="12.88" class="st2" width="0.97" height="0.97"/>
			<rect x="23.19" y="11.91" class="st2" width="0.97" height="0.97"/>
			<rect x="23.19" y="10.94" class="st2" width="0.97" height="0.97"/>
			<rect x="23.19" y="9.97" class="st1" width="0.97" height="0.97"/>
			<rect x="23.19" y="9" class="st1" width="0.97" height="0.97"/>
			<rect x="22.22" y="27.43" class="st1" width="0.97" height="0.97"/>
			<rect x="22.22" y="26.46" class="st1" width="0.97" height="0.97"/>
			<rect x="22.22" y="25.49" class="st2" width="0.97" height="0.97"/>
			<rect x="22.22" y="24.52" class="st2" width="0.97" height="0.97"/>
			<rect x="22.22" y="23.55" class="st2" width="0.97" height="0.97"/>
			<rect x="22.22" y="22.58" class="st2" width="0.97" height="0.97"/>
			<rect x="22.22" y="21.61" class="st2" width="0.97" height="0.97"/>
			<rect x="22.22" y="20.64" class="st2" width="0.97" height="0.97"/>
			<rect x="22.22" y="19.67" class="st2" width="0.97" height="0.97"/>
			<rect x="22.22" y="18.7" class="st2" width="0.97" height="0.97"/>
			<rect x="22.22" y="17.73" class="st2" width="0.97" height="0.97"/>
			<rect x="22.22" y="16.76" class="st2" width="0.97" height="0.97"/>
			<rect x="22.22" y="15.79" class="st2" width="0.97" height="0.97"/>
			<rect x="22.22" y="14.82" class="st2" width="0.97" height="0.97"/>
			<rect x="22.22" y="13.85" class="st2" width="0.97" height="0.97"/>
			<rect x="22.22" y="12.88" class="st2" width="0.97" height="0.97"/>
			<rect x="22.22" y="11.91" class="st2" width="0.97" height="0.97"/>
			<rect x="22.22" y="10.94" class="st2" width="0.97" height="0.97"/>
			<rect x="22.22" y="9.97" class="st1" width="0.97" height="0.97"/>
			<rect x="22.22" y="9" class="st1" width="0.97" height="0.97"/>
			<rect x="21.25" y="27.43" class="st1" width="0.97" height="0.97"/>
			<rect x="21.25" y="26.46" class="st1" width="0.97" height="0.97"/>
			<rect x="21.25" y="25.49" class="st2" width="0.97" height="0.97"/>
			<rect x="21.25" y="24.52" class="st2" width="0.97" height="0.97"/>
			<rect x="21.25" y="23.55" class="st2" width="0.97" height="0.97"/>
			<rect x="21.25" y="22.58" class="st2" width="0.97" height="0.97"/>
			<rect x="21.25" y="21.61" class="st2" width="0.97" height="0.97"/>
			<rect x="21.25" y="20.64" class="st2" width="0.97" height="0.97"/>
			<rect x="21.25" y="19.67" class="st2" width="0.97" height="0.97"/>
			<rect x="21.25" y="18.7" class="st2" width="0.97" height="0.97"/>
			<rect x="21.25" y="17.73" class="st2" width="0.97" height="0.97"/>
			<rect x="21.25" y="16.76" class="st2" width="0.97" height="0.97"/>
			<rect x="21.25" y="15.79" class="st2" width="0.97" height="0.97"/>
			<rect x="21.25" y="14.82" class="st2" width="0.97" height="0.97"/>
			<rect x="21.25" y="13.85" class="st2" width="0.97" height="0.97"/>
			<rect x="21.25" y="12.88" class="st2" width="0.97" height="0.97"/>
			<rect x="21.25" y="11.91" class="st2" width="0.97" height="0.97"/>
			<rect x="21.25" y="10.94" class="st2" width="0.97" height="0.97"/>
			<rect x="21.25" y="9.97" class="st1" width="0.97" height="0.97"/>
			<rect x="21.25" y="9" class="st1" width="0.97" height="0.97"/>
			<rect x="20.28" y="27.43" class="st1" width="0.97" height="0.97"/>
			<rect x="20.28" y="26.46" class="st1" width="0.97" height="0.97"/>
			<rect x="20.28" y="25.49" class="st2" width="0.97" height="0.97"/>
			<rect x="20.28" y="24.52" class="st2" width="0.97" height="0.97"/>
			<rect x="20.28" y="23.55" class="st2" width="0.97" height="0.97"/>
			<rect x="20.28" y="22.58" class="st2" width="0.97" height="0.97"/>
			<rect x="20.28" y="21.61" class="st1" width="0.97" height="0.97"/>
			<rect x="20.28" y="20.64" class="st1" width="0.97" height="0.97"/>
			<rect x="20.28" y="19.67" class="st1" width="0.97" height="0.97"/>
			<rect x="20.28" y="18.7" class="st1" width="0.97" height="0.97"/>
			<rect x="20.28" y="17.73" class="st1" width="0.97" height="0.97"/>
			<rect x="20.28" y="16.76" class="st1" width="0.97" height="0.97"/>
			<rect x="20.28" y="15.79" class="st1" width="0.97" height="0.97"/>
			<rect x="20.28" y="14.82" class="st1" width="0.97" height="0.97"/>
			<rect x="20.28" y="13.85" class="st2" width="0.97" height="0.97"/>
			<rect x="20.28" y="12.88" class="st2" width="0.97" height="0.97"/>
			<rect x="20.28" y="11.91" class="st2" width="0.97" height="0.97"/>
			<rect x="20.28" y="10.94" class="st2" width="0.97" height="0.97"/>
			<rect x="20.28" y="9.97" class="st1" width="0.97" height="0.97"/>
			<rect x="20.28" y="9" class="st1" width="0.97" height="0.97"/>
			<rect x="19.31" y="27.43" class="st1" width="0.97" height="0.97"/>
			<rect x="19.31" y="26.46" class="st1" width="0.97" height="0.97"/>
			<rect x="19.31" y="25.49" class="st2" width="0.97" height="0.97"/>
			<rect x="19.31" y="24.52" class="st2" width="0.97" height="0.97"/>
			<rect x="19.31" y="23.55" class="st2" width="0.97" height="0.97"/>
			<rect x="19.31" y="22.58" class="st1" width="0.97" height="0.97"/>
			<rect x="19.31" y="21.61" class="st3" width="0.97" height="0.97"/>
			<rect x="19.31" y="20.64" class="st3" width="0.97" height="0.97"/>
			<rect x="19.31" y="19.67" class="st3" width="0.97" height="0.97"/>
			<rect x="19.31" y="18.7" class="st3" width="0.97" height="0.97"/>
			<rect x="19.31" y="17.73" class="st3" width="0.97" height="0.97"/>
			<rect x="19.31" y="16.76" class="st3" width="0.97" height="0.97"/>
			<rect x="19.31" y="15.79" class="st3" width="0.97" height="0.97"/>
			<rect x="19.31" y="14.82" class="st3" width="0.97" height="0.97"/>
			<rect x="19.31" y="13.85" class="st1" width="0.97" height="0.97"/>
			<rect x="19.31" y="12.88" class="st2" width="0.97" height="0.97"/>
			<rect x="19.31" y="11.91" class="st2" width="0.97" height="0.97"/>
			<rect x="19.31" y="10.94" class="st2" width="0.97" height="0.97"/>
			<rect x="19.31" y="9.97" class="st1" width="0.97" height="0.97"/>
			<rect x="19.31" y="9" class="st1" width="0.97" height="0.97"/>
			<rect x="18.34" y="27.43" class="st1" width="0.97" height="0.97"/>
			<rect x="18.34" y="26.46" class="st1" width="0.97" height="0.97"/>
			<rect x="18.34" y="25.49" class="st2" width="0.97" height="0.97"/>
			<rect x="18.34" y="24.52" class="st2" width="0.97" height="0.97"/>
			<rect x="18.34" y="23.55" class="st1" width="0.97" height="0.97"/>
			<rect x="18.34" y="22.58" class="st3" width="0.97" height="0.97"/>
			<rect x="18.34" y="21.61" class="st3" width="0.97" height="0.97"/>
			<rect x="18.34" y="20.64" class="st1" width="0.97" height="0.97"/>
			<rect x="18.34" y="19.67" class="st3" width="0.97" height="0.97"/>
			<rect x="18.34" y="18.7" class="st3" width="0.97" height="0.97"/>
			<rect x="18.34" y="17.73" class="st3" width="0.97" height="0.97"/>
			<rect x="18.34" y="16.76" class="st3" width="0.97" height="0.97"/>
			<rect x="18.34" y="15.79" class="st3" width="0.97" height="0.97"/>
			<rect x="18.34" y="14.82" class="st3" width="0.97" height="0.97"/>
			<rect x="18.34" y="13.85" class="st3" width="0.97" height="0.97"/>
			<rect x="18.34" y="12.88" class="st1" width="0.97" height="0.97"/>
			<rect x="18.34" y="11.91" class="st2" width="0.97" height="0.97"/>
			<rect x="18.34" y="10.94" class="st2" width="0.97" height="0.97"/>
			<rect x="18.34" y="9.97" class="st1" width="0.97" height="0.97"/>
			<rect x="18.34" y="9" class="st1" width="0.97" height="0.97"/>
			<rect x="17.37" y="27.43" class="st1" width="0.97" height="0.97"/>
			<rect x="17.37" y="26.46" class="st1" width="0.97" height="0.97"/>
			<rect x="17.37" y="25.49" class="st2" width="0.97" height="0.97"/>
			<rect x="17.37" y="24.52" class="st2" width="0.97" height="0.97"/>
			<rect x="17.37" y="23.55" class="st1" width="0.97" height="0.97"/>
			<rect x="17.37" y="22.58" class="st3" width="0.97" height="0.97"/>
			<rect x="17.37" y="21.61" class="st3" width="0.97" height="0.97"/>
			<rect x="17.37" y="20.64" class="st3" width="0.97" height="0.97"/>
			<rect x="17.37" y="19.67" class="st3" width="0.97" height="0.97"/>
			<rect x="17.37" y="18.7" class="st3" width="0.97" height="0.97"/>
			<rect x="17.37" y="17.73" class="st3" width="0.97" height="0.97"/>
			<rect x="17.37" y="16.76" class="st3" width="0.97" height="0.97"/>
			<rect x="17.37" y="15.79" class="st3" width="0.97" height="0.97"/>
			<rect x="17.37" y="14.82" class="st3" width="0.97" height="0.97"/>
			<rect x="17.37" y="13.85" class="st3" width="0.97" height="0.97"/>
			<rect x="17.37" y="12.88" class="st1" width="0.97" height="0.97"/>
			<rect x="17.37" y="11.91" class="st2" width="0.97" height="0.97"/>
			<rect x="17.37" y="10.94" class="st2" width="0.97" height="0.97"/>
			<rect x="17.37" y="9.97" class="st1" width="0.97" height="0.97"/>
			<rect x="17.37" y="9" class="st1" width="0.97" height="0.97"/>
			<rect x="16.4" y="27.43" class="st1" width="0.97" height="0.97"/>
			<rect x="16.4" y="26.46" class="st1" width="0.97" height="0.97"/>
			<rect x="16.4" y="25.49" class="st2" width="0.97" height="0.97"/>
			<rect x="16.4" y="24.52" class="st2" width="0.97" height="0.97"/>
			<rect x="16.4" y="23.55" class="st1" width="0.97" height="0.97"/>
			<rect x="16.4" y="22.58" class="st1" width="0.97" height="0.97"/>
			<rect x="16.4" y="21.61" class="st1" width="0.97" height="0.97"/>
			<rect x="16.4" y="20.64" class="st1" width="0.97" height="0.97"/>
			<rect x="16.4" y="19.67" class="st1" width="0.97" height="0.97"/>
			<rect x="16.4" y="18.7" class="st1" width="0.97" height="0.97"/>
			<rect x="16.4" y="17.73" class="st1" width="0.97" height="0.97"/>
			<rect x="16.4" y="16.76" class="st1" width="0.97" height="0.97"/>
			<rect x="16.4" y="15.79" class="st1" width="0.97" height="0.97"/>
			<rect x="16.4" y="14.82" class="st1" width="0.97" height="0.97"/>
			<rect x="16.4" y="13.85" class="st1" width="0.97" height="0.97"/>
			<rect x="16.4" y="12.88" class="st1" width="0.97" height="0.97"/>
			<rect x="16.4" y="11.91" class="st2" width="0.97" height="0.97"/>
			<rect x="16.4" y="10.94" class="st2" width="0.97" height="0.97"/>
			<rect x="16.4" y="9.97" class="st1" width="0.97" height="0.97"/>
			<rect x="16.4" y="9" class="st1" width="0.97" height="0.97"/>
			<rect x="15.43" y="27.43" class="st1" width="0.97" height="0.97"/>
			<rect x="15.43" y="26.46" class="st1" width="0.97" height="0.97"/>
			<rect x="15.43" y="25.49" class="st2" width="0.97" height="0.97"/>
			<rect x="15.43" y="24.52" class="st2" width="0.97" height="0.97"/>
			<rect x="15.43" y="23.55" class="st2" width="0.97" height="0.97"/>
			<rect x="15.43" y="22.58" class="st2" width="0.97" height="0.97"/>
			<rect x="15.43" y="21.61" class="st2" width="0.97" height="0.97"/>
			<rect x="15.43" y="20.64" class="st2" width="0.97" height="0.97"/>
			<rect x="15.43" y="19.67" class="st2" width="0.97" height="0.97"/>
			<rect x="15.43" y="18.7" class="st2" width="0.97" height="0.97"/>
			<rect x="15.43" y="17.73" class="st2" width="0.97" height="0.97"/>
			<rect x="15.43" y="16.76" class="st2" width="0.97" height="0.97"/>
			<rect x="15.43" y="15.79" class="st2" width="0.97" height="0.97"/>
			<rect x="15.43" y="14.82" class="st2" width="0.97" height="0.97"/>
			<rect x="15.43" y="13.85" class="st2" width="0.97" height="0.97"/>
			<rect x="15.43" y="12.88" class="st2" width="0.97" height="0.97"/>
			<rect x="15.43" y="11.91" class="st2" width="0.97" height="0.97"/>
			<rect x="15.43" y="10.94" class="st2" width="0.97" height="0.97"/>
			<rect x="15.43" y="9.97" class="st1" width="0.97" height="0.97"/>
			<rect x="15.43" y="9" class="st1" width="0.97" height="0.97"/>
			<rect x="14.46" y="27.43" class="st1" width="0.97" height="0.97"/>
			<rect x="14.46" y="26.46" class="st1" width="0.97" height="0.97"/>
			<rect x="14.46" y="25.49" class="st2" width="0.97" height="0.97"/>
			<rect x="14.46" y="24.52" class="st2" width="0.97" height="0.97"/>
			<rect x="14.46" y="23.55" class="st1" width="0.97" height="0.97"/>
			<rect x="14.46" y="22.58" class="st1" width="0.97" height="0.97"/>
			<rect x="14.46" y="21.61" class="st1" width="0.97" height="0.97"/>
			<rect x="14.46" y="20.64" class="st1" width="0.97" height="0.97"/>
			<rect x="14.46" y="19.67" class="st1" width="0.97" height="0.97"/>
			<rect x="14.46" y="18.7" class="st1" width="0.97" height="0.97"/>
			<rect x="14.46" y="17.73" class="st1" width="0.97" height="0.97"/>
			<rect x="14.46" y="16.76" class="st1" width="0.97" height="0.97"/>
			<rect x="14.46" y="15.79" class="st1" width="0.97" height="0.97"/>
			<rect x="14.46" y="14.82" class="st1" width="0.97" height="0.97"/>
			<rect x="14.46" y="13.85" class="st1" width="0.97" height="0.97"/>
			<rect x="14.46" y="12.88" class="st1" width="0.97" height="0.97"/>
			<rect x="14.46" y="11.91" class="st2" width="0.97" height="0.97"/>
			<rect x="14.46" y="10.94" class="st2" width="0.97" height="0.97"/>
			<rect x="14.46" y="9.97" class="st1" width="0.97" height="0.97"/>
			<rect x="14.46" y="9" class="st1" width="0.97" height="0.97"/>
			<rect x="13.49" y="27.43" class="st1" width="0.97" height="0.97"/>
			<rect x="13.49" y="26.46" class="st1" width="0.97" height="0.97"/>
			<rect x="13.49" y="25.49" class="st2" width="0.97" height="0.97"/>
			<rect x="13.49" y="24.52" class="st2" width="0.97" height="0.97"/>
			<rect x="13.49" y="23.55" class="st1" width="0.97" height="0.97"/>
			<rect x="13.49" y="22.58" class="st0" width="0.97" height="0.97"/>
			<rect x="13.49" y="21.61" class="st0" width="0.97" height="0.97"/>
			<rect x="13.49" y="20.64" class="st0" width="0.97" height="0.97"/>
			<rect x="13.49" y="19.67" class="st0" width="0.97" height="0.97"/>
			<rect x="13.49" y="18.7" class="st0" width="0.97" height="0.97"/>
			<rect x="13.49" y="17.73" class="st0" width="0.97" height="0.97"/>
			<rect x="13.49" y="16.76" class="st0" width="0.97" height="0.97"/>
			<rect x="13.49" y="15.79" class="st0" width="0.97" height="0.97"/>
			<rect x="13.49" y="14.82" class="st0" width="0.97" height="0.97"/>
			<rect x="13.49" y="13.85" class="st0" width="0.97" height="0.97"/>
			<rect x="13.49" y="12.88" class="st1" width="0.97" height="0.97"/>
			<rect x="13.49" y="11.91" class="st2" width="0.97" height="0.97"/>
			<rect x="13.49" y="10.94" class="st2" width="0.97" height="0.97"/>
			<rect x="13.49" y="9.97" class="st1" width="0.97" height="0.97"/>
			<rect x="13.49" y="9" class="st1" width="0.97" height="0.97"/>
			<rect x="12.52" y="27.43" class="st1" width="0.97" height="0.97"/>
			<rect x="12.52" y="26.46" class="st1" width="0.97" height="0.97"/>
			<rect x="12.52" y="25.49" class="st2" width="0.97" height="0.97"/>
			<rect x="12.52" y="24.52" class="st2" width="0.97" height="0.97"/>
			<rect x="12.52" y="23.55" class="st1" width="0.97" height="0.97"/>
			<rect x="12.52" y="22.58" class="st0" width="0.97" height="0.97"/>
			<rect x="12.52" y="21.61" class="st0" width="0.97" height="0.97"/>
			<rect x="12.52" y="20.64" class="st0" width="0.97" height="0.97"/>
			<rect x="12.52" y="19.67" class="st0" width="0.97" height="0.97"/>
			<rect x="12.52" y="18.7" class="st0" width="0.97" height="0.97"/>
			<rect x="12.52" y="17.73" class="st0" width="0.97" height="0.97"/>
			<rect x="12.52" y="16.76" class="st0" width="0.97" height="0.97"/>
			<rect x="12.52" y="15.79" class="st0" width="0.97" height="0.97"/>
			<rect x="12.52" y="14.82" class="st1" width="0.97" height="0.97"/>
			<rect x="12.52" y="13.85" class="st0" width="0.97" height="0.97"/>
			<rect x="12.52" y="12.88" class="st1" width="0.97" height="0.97"/>
			<rect x="12.52" y="11.91" class="st2" width="0.97" height="0.97"/>
			<rect x="12.52" y="10.94" class="st2" width="0.97" height="0.97"/>
			<rect x="12.52" y="9.97" class="st1" width="0.97" height="0.97"/>
			<rect x="12.52" y="9" class="st1" width="0.97" height="0.97"/>
			<rect x="11.55" y="27.43" class="st1" width="0.97" height="0.97"/>
			<rect x="11.55" y="26.46" class="st1" width="0.97" height="0.97"/>
			<rect x="11.55" y="25.49" class="st2" width="0.97" height="0.97"/>
			<rect x="11.55" y="24.52" class="st2" width="0.97" height="0.97"/>
			<rect x="11.55" y="23.55" class="st2" width="0.97" height="0.97"/>
			<rect x="11.55" y="22.58" class="st1" width="0.97" height="0.97"/>
			<rect x="11.55" y="21.61" class="st0" width="0.97" height="0.97"/>
			<rect x="11.55" y="20.64" class="st0" width="0.97" height="0.97"/>
			<rect x="11.55" y="19.67" class="st0" width="0.97" height="0.97"/>
			<rect x="11.55" y="18.7" class="st0" width="0.97" height="0.97"/>
			<rect x="11.55" y="17.73" class="st0" width="0.97" height="0.97"/>
			<rect x="11.55" y="16.76" class="st0" width="0.97" height="0.97"/>
			<rect x="11.55" y="15.79" class="st0" width="0.97" height="0.97"/>
			<rect x="11.55" y="14.82" class="st0" width="0.97" height="0.97"/>
			<rect x="11.55" y="13.85" class="st1" width="0.97" height="0.97"/>
			<rect x="11.55" y="12.88" class="st2" width="0.97" height="0.97"/>
			<rect x="11.55" y="11.91" class="st2" width="0.97" height="0.97"/>
			<rect x="11.55" y="10.94" class="st2" width="0.97" height="0.97"/>
			<rect x="11.55" y="9.97" class="st1" width="0.97" height="0.97"/>
			<rect x="11.55" y="9" class="st1" width="0.97" height="0.97"/>
			<rect x="10.58" y="27.43" class="st1" width="0.97" height="0.97"/>
			<rect x="10.58" y="26.46" class="st1" width="0.97" height="0.97"/>
			<rect x="10.58" y="25.49" class="st2" width="0.97" height="0.97"/>
			<rect x="10.58" y="24.52" class="st2" width="0.97" height="0.97"/>
			<rect x="10.58" y="23.55" class="st2" width="0.97" height="0.97"/>
			<rect x="10.58" y="22.58" class="st2" width="0.97" height="0.97"/>
			<rect x="10.58" y="21.61" class="st1" width="0.97" height="0.97"/>
			<rect x="10.58" y="20.64" class="st1" width="0.97" height="0.97"/>
			<rect x="10.58" y="19.67" class="st1" width="0.97" height="0.97"/>
			<rect x="10.58" y="18.7" class="st1" width="0.97" height="0.97"/>
			<rect x="10.58" y="17.73" class="st1" width="0.97" height="0.97"/>
			<rect x="10.58" y="16.76" class="st1" width="0.97" height="0.97"/>
			<rect x="10.58" y="15.79" class="st1" width="0.97" height="0.97"/>
			<rect x="10.58" y="14.82" class="st1" width="0.97" height="0.97"/>
			<rect x="10.58" y="13.85" class="st2" width="0.97" height="0.97"/>
			<rect x="10.58" y="12.88" class="st2" width="0.97" height="0.97"/>
			<rect x="10.58" y="11.91" class="st2" width="0.97" height="0.97"/>
			<rect x="10.58" y="10.94" class="st2" width="0.97" height="0.97"/>
			<rect x="10.58" y="9.97" class="st1" width="0.97" height="0.97"/>
			<rect x="10.58" y="9" class="st1" width="0.97" height="0.97"/>
			<rect x="9.61" y="27.43" class="st1" width="0.97" height="0.97"/>
			<rect x="9.61" y="26.46" class="st1" width="0.97" height="0.97"/>
			<rect x="9.61" y="25.49" class="st2" width="0.97" height="0.97"/>
			<rect x="9.61" y="24.52" class="st2" width="0.97" height="0.97"/>
			<rect x="9.61" y="23.55" class="st2" width="0.97" height="0.97"/>
			<rect x="9.61" y="22.58" class="st2" width="0.97" height="0.97"/>
			<rect x="9.61" y="21.61" class="st2" width="0.97" height="0.97"/>
			<rect x="9.61" y="20.64" class="st2" width="0.97" height="0.97"/>
			<rect x="9.61" y="19.67" class="st2" width="0.97" height="0.97"/>
			<rect x="9.61" y="18.7" class="st2" width="0.97" height="0.97"/>
			<rect x="9.61" y="17.73" class="st2" width="0.97" height="0.97"/>
			<rect x="9.61" y="16.76" class="st2" width="0.97" height="0.97"/>
			<rect x="9.61" y="15.79" class="st2" width="0.97" height="0.97"/>
			<rect x="9.61" y="14.82" class="st2" width="0.97" height="0.97"/>
			<rect x="9.61" y="13.85" class="st2" width="0.97" height="0.97"/>
			<rect x="9.61" y="12.88" class="st2" width="0.97" height="0.97"/>
			<rect x="9.61" y="11.91" class="st2" width="0.97" height="0.97"/>
			<rect x="9.61" y="10.94" class="st2" width="0.97" height="0.97"/>
			<rect x="9.61" y="9.97" class="st1" width="0.97" height="0.97"/>
			<rect x="9.61" y="9" class="st1" width="0.97" height="0.97"/>
			<rect x="8.64" y="27.43" class="st1" width="0.97" height="0.97"/>
			<rect x="8.64" y="26.46" class="st1" width="0.97" height="0.97"/>
			<rect x="8.64" y="25.49" class="st2" width="0.97" height="0.97"/>
			<rect x="8.64" y="24.52" class="st2" width="0.97" height="0.97"/>
			<rect x="8.64" y="23.55" class="st2" width="0.97" height="0.97"/>
			<rect x="8.64" y="22.58" class="st2" width="0.97" height="0.97"/>
			<rect x="8.64" y="21.61" class="st2" width="0.97" height="0.97"/>
			<rect x="8.64" y="20.64" class="st2" width="0.97" height="0.97"/>
			<rect x="8.64" y="19.67" class="st2" width="0.97" height="0.97"/>
			<rect x="8.64" y="18.7" class="st2" width="0.97" height="0.97"/>
			<rect x="8.64" y="17.73" class="st2" width="0.97" height="0.97"/>
			<rect x="8.64" y="16.76" class="st2" width="0.97" height="0.97"/>
			<rect x="8.64" y="15.79" class="st2" width="0.97" height="0.97"/>
			<rect x="8.64" y="14.82" class="st2" width="0.97" height="0.97"/>
			<rect x="8.64" y="13.85" class="st2" width="0.97" height="0.97"/>
			<rect x="8.64" y="12.88" class="st2" width="0.97" height="0.97"/>
			<rect x="8.64" y="11.91" class="st2" width="0.97" height="0.97"/>
			<rect x="8.64" y="10.94" class="st2" width="0.97" height="0.97"/>
			<rect x="8.64" y="9.97" class="st1" width="0.97" height="0.97"/>
			<rect x="8.64" y="9" class="st1" width="0.97" height="0.97"/>
			<rect x="7.67" y="27.43" class="st1" width="0.97" height="0.97"/>
			<rect x="7.67" y="26.46" class="st1" width="0.97" height="0.97"/>
			<rect x="7.67" y="25.49" class="st2" width="0.97" height="0.97"/>
			<rect x="7.67" y="24.52" class="st2" width="0.97" height="0.97"/>
			<rect x="7.67" y="23.55" class="st2" width="0.97" height="0.97"/>
			<rect x="7.67" y="22.58" class="st2" width="0.97" height="0.97"/>
			<rect x="7.67" y="21.61" class="st2" width="0.97" height="0.97"/>
			<rect x="7.67" y="20.64" class="st2" width="0.97" height="0.97"/>
			<rect x="7.67" y="19.67" class="st2" width="0.97" height="0.97"/>
			<rect x="7.67" y="18.7" class="st2" width="0.97" height="0.97"/>
			<rect x="7.67" y="17.73" class="st2" width="0.97" height="0.97"/>
			<rect x="7.67" y="16.76" class="st2" width="0.97" height="0.97"/>
			<rect x="7.67" y="15.79" class="st2" width="0.97" height="0.97"/>
			<rect x="7.67" y="14.82" class="st2" width="0.97" height="0.97"/>
			<rect x="7.67" y="13.85" class="st2" width="0.97" height="0.97"/>
			<rect x="7.67" y="12.88" class="st2" width="0.97" height="0.97"/>
			<rect x="7.67" y="11.91" class="st2" width="0.97" height="0.97"/>
			<rect x="7.67" y="10.94" class="st2" width="0.97" height="0.97"/>
			<rect x="7.67" y="9.97" class="st1" width="0.97" height="0.97"/>
			<rect x="7.67" y="9" class="st1" width="0.97" height="0.97"/>
			<rect x="6.7" y="27.43" class="st1" width="0.97" height="0.97"/>
			<rect x="6.7" y="26.46" class="st1" width="0.97" height="0.97"/>
			<rect x="6.7" y="25.49" class="st2" width="0.97" height="0.97"/>
			<rect x="6.7" y="24.52" class="st2" width="0.97" height="0.97"/>
			<rect x="6.7" y="23.55" class="st2" width="0.97" height="0.97"/>
			<rect x="6.7" y="22.58" class="st2" width="0.97" height="0.97"/>
			<rect x="6.7" y="21.61" class="st2" width="0.97" height="0.97"/>
			<rect x="6.7" y="20.64" class="st2" width="0.97" height="0.97"/>
			<rect x="6.7" y="19.67" class="st2" width="0.97" height="0.97"/>
			<rect x="6.7" y="18.7" class="st2" width="0.97" height="0.97"/>
			<rect x="6.7" y="17.73" class="st2" width="0.97" height="0.97"/>
			<rect x="6.7" y="16.76" class="st2" width="0.97" height="0.97"/>
			<rect x="6.7" y="15.79" class="st2" width="0.97" height="0.97"/>
			<rect x="6.7" y="14.82" class="st2" width="0.97" height="0.97"/>
			<rect x="6.7" y="13.85" class="st2" width="0.97" height="0.97"/>
			<rect x="6.7" y="12.88" class="st2" width="0.97" height="0.97"/>
			<rect x="6.7" y="11.91" class="st2" width="0.97" height="0.97"/>
			<rect x="6.7" y="10.94" class="st2" width="0.97" height="0.97"/>
			<rect x="6.7" y="9.97" class="st1" width="0.97" height="0.97"/>
			<rect x="6.7" y="9" class="st1" width="0.97" height="0.97"/>
			<rect x="5.73" y="27.43" class="st1" width="0.97" height="0.97"/>
			<rect x="5.73" y="26.46" class="st1" width="0.97" height="0.97"/>
			<rect x="5.73" y="25.49" class="st2" width="0.97" height="0.97"/>
			<rect x="5.73" y="24.52" class="st2" width="0.97" height="0.97"/>
			<rect x="5.73" y="23.55" class="st2" width="0.97" height="0.97"/>
			<rect x="5.73" y="22.58" class="st2" width="0.97" height="0.97"/>
			<rect x="5.73" y="21.61" class="st2" width="0.97" height="0.97"/>
			<rect x="5.73" y="20.64" class="st2" width="0.97" height="0.97"/>
			<rect x="5.73" y="19.67" class="st2" width="0.97" height="0.97"/>
			<rect x="5.73" y="18.7" class="st2" width="0.97" height="0.97"/>
			<rect x="5.73" y="17.73" class="st2" width="0.97" height="0.97"/>
			<rect x="5.73" y="16.76" class="st2" width="0.97" height="0.97"/>
			<rect x="5.73" y="15.79" class="st2" width="0.97" height="0.97"/>
			<rect x="5.73" y="14.82" class="st2" width="0.97" height="0.97"/>
			<rect x="5.73" y="13.85" class="st2" width="0.97" height="0.97"/>
			<rect x="5.73" y="12.88" class="st2" width="0.97" height="0.97"/>
			<rect x="5.73" y="11.91" class="st2" width="0.97" height="0.97"/>
			<rect x="5.73" y="10.94" class="st2" width="0.97" height="0.97"/>
			<rect x="5.73" y="9.97" class="st1" width="0.97" height="0.97"/>
			<rect x="5.73" y="9" class="st1" width="0.97" height="0.97"/>
			<rect x="4.76" y="27.43" class="st1" width="0.97" height="0.97"/>
			<rect x="4.76" y="26.46" class="st1" width="0.97" height="0.97"/>
			<rect x="4.76" y="25.49" class="st1" width="0.97" height="0.97"/>
			<rect x="4.76" y="24.52" class="st1" width="0.97" height="0.97"/>
			<rect x="4.76" y="23.55" class="st1" width="0.97" height="0.97"/>
			<rect x="4.76" y="22.58" class="st1" width="0.97" height="0.97"/>
			<rect x="4.76" y="21.61" class="st1" width="0.97" height="0.97"/>
			<rect x="4.76" y="20.64" class="st1" width="0.97" height="0.97"/>
			<rect x="4.76" y="19.67" class="st1" width="0.97" height="0.97"/>
			<rect x="4.76" y="18.7" class="st1" width="0.97" height="0.97"/>
			<rect x="4.76" y="17.73" class="st1" width="0.97" height="0.97"/>
			<rect x="4.76" y="16.76" class="st1" width="0.97" height="0.97"/>
			<rect x="4.76" y="15.79" class="st1" width="0.97" height="0.97"/>
			<rect x="4.76" y="14.82" class="st1" width="0.97" height="0.97"/>
			<rect x="4.76" y="13.85" class="st1" width="0.97" height="0.97"/>
			<rect x="4.76" y="12.88" class="st1" width="0.97" height="0.97"/>
			<rect x="4.76" y="11.91" class="st1" width="0.97" height="0.97"/>
			<rect x="4.76" y="10.94" class="st1" width="0.97" height="0.97"/>
			<rect x="4.76" y="9.97" class="st1" width="0.97" height="0.97"/>
			<rect x="4.76" y="9" class="st1" width="0.97" height="0.97"/>
			<rect x="3.79" y="26.46" class="st3" width="0.97" height="0.97"/>
			<rect x="3.79" y="25.49" class="st3" width="0.97" height="0.97"/>
			<rect x="3.79" y="24.52" class="st3" width="0.97" height="0.97"/>
			<rect x="3.79" y="23.55" class="st3" width="0.97" height="0.97"/>
			<rect x="3.79" y="22.58" class="st3" width="0.97" height="0.97"/>
			<rect x="3.79" y="21.61" class="st3" width="0.97" height="0.97"/>
			<rect x="3.79" y="20.64" class="st3" width="0.97" height="0.97"/>
			<rect x="3.79" y="19.67" class="st3" width="0.97" height="0.97"/>
			<rect x="3.79" y="18.7" class="st3" width="0.97" height="0.97"/>
			<rect x="3.79" y="17.73" class="st3" width="0.97" height="0.97"/>
			<rect x="3.79" y="16.76" class="st3" width="0.97" height="0.97"/>
			<rect x="3.79" y="15.79" class="st3" width="0.97" height="0.97"/>
			<rect x="3.79" y="14.82" class="st3" width="0.97" height="0.97"/>
			<rect x="3.79" y="13.85" class="st3" width="0.97" height="0.97"/>
			<rect x="3.79" y="12.88" class="st3" width="0.97" height="0.97"/>
			<rect x="3.79" y="11.91" class="st3" width="0.97" height="0.97"/>
			<rect x="3.79" y="10.94" class="st3" width="0.97" height="0.97"/>
			<rect x="3.79" y="9.97" class="st3" width="0.97" height="0.97"/>
			<rect x="2.82" y="27.43" class="st3" width="0.97" height="0.97"/>
			<rect x="2.82" y="26.46" class="st3" width="0.97" height="0.97"/>
			<rect x="2.82" y="25.49" class="st3" width="0.97" height="0.97"/>
			<rect x="2.82" y="24.52" class="st3" width="0.97" height="0.97"/>
			<rect x="2.82" y="23.55" class="st3" width="0.97" height="0.97"/>
			<rect x="2.82" y="22.58" class="st1" width="0.97" height="0.97"/>
			<rect x="2.82" y="21.61" class="st3" width="0.97" height="0.97"/>
			<rect x="2.82" y="20.64" class="st3" width="0.97" height="0.97"/>
			<rect x="2.82" y="19.67" class="st3" width="0.97" height="0.97"/>
			<rect x="2.82" y="18.7" class="st3" width="0.97" height="0.97"/>
			<rect x="2.82" y="17.73" class="st3" width="0.97" height="0.97"/>
			<rect x="2.82" y="16.76" class="st3" width="0.97" height="0.97"/>
			<rect x="2.82" y="15.79" class="st3" width="0.97" height="0.97"/>
			<rect x="2.82" y="14.82" class="st3" width="0.97" height="0.97"/>
			<rect x="2.82" y="13.85" class="st3" width="0.97" height="0.97"/>
			<rect x="2.82" y="12.88" class="st3" width="0.97" height="0.97"/>
			<rect x="2.82" y="11.91" class="st3" width="0.97" height="0.97"/>
			<rect x="2.82" y="10.94" class="st3" width="0.97" height="0.97"/>
			<rect x="2.82" y="9.97" class="st3" width="0.97" height="0.97"/>
			<rect x="2.82" y="9" class="st1" width="0.97" height="0.97"/>
			<rect x="1.85" y="27.43" class="st3" width="0.97" height="0.97"/>
			<rect x="1.85" y="26.46" class="st3" width="0.97" height="0.97"/>
			<rect x="1.85" y="25.49" class="st3" width="0.97" height="0.97"/>
			<rect x="1.85" y="24.52" class="st3" width="0.97" height="0.97"/>
			<rect x="1.85" y="23.55" class="st1" width="0.97" height="0.97"/>
			<rect x="1.85" y="22.58" class="st3" width="0.97" height="0.97"/>
			<rect x="1.85" y="21.61" class="st1" width="0.97" height="0.97"/>
			<rect x="1.85" y="20.64" class="st3" width="0.97" height="0.97"/>
			<rect x="1.85" y="19.67" class="st3" width="0.97" height="0.97"/>
			<rect x="1.85" y="18.7" class="st3" width="0.97" height="0.97"/>
			<rect x="1.85" y="17.73" class="st3" width="0.97" height="0.97"/>
			<rect x="1.85" y="16.76" class="st3" width="0.97" height="0.97"/>
			<rect x="1.85" y="15.79" class="st3" width="0.97" height="0.97"/>
			<rect x="1.85" y="14.82" class="st3" width="0.97" height="0.97"/>
			<rect x="1.85" y="13.85" class="st1" width="0.97" height="0.97"/>
			<rect x="1.85" y="12.88" class="st1" width="0.97" height="0.97"/>
			<rect x="1.85" y="11.91" class="st3" width="0.97" height="0.97"/>
			<rect x="1.85" y="10.94" class="st3" width="0.97" height="0.97"/>
			<rect x="1.85" y="9.97" class="st1" width="0.97" height="0.97"/>
			<rect x="1.85" y="9" class="st1" width="0.97" height="0.97"/>
			<rect x="0.88" y="26.46" class="st3" width="0.97" height="0.97"/>
			<rect x="0.88" y="25.49" class="st3" width="0.97" height="0.97"/>
			<rect x="0.88" y="24.52" class="st3" width="0.97" height="0.97"/>
			<rect x="0.88" y="23.55" class="st3" width="0.97" height="0.97"/>
			<rect x="0.88" y="22.58" class="st1" width="0.97" height="0.97"/>
			<rect x="0.88" y="21.61" class="st3" width="0.97" height="0.97"/>
			<rect x="0.88" y="20.64" class="st3" width="0.97" height="0.97"/>
			<rect x="0.88" y="19.67" class="st3" width="0.97" height="0.97"/>
			<rect x="0.88" y="18.7" class="st3" width="0.97" height="0.97"/>
			<rect x="0.88" y="17.73" class="st3" width="0.97" height="0.97"/>
			<rect x="0.88" y="16.76" class="st3" width="0.97" height="0.97"/>
			<rect x="0.88" y="15.79" class="st3" width="0.97" height="0.97"/>
			<rect x="0.88" y="14.82" class="st3" width="0.97" height="0.97"/>
			<rect x="0.88" y="13.85" class="st3" width="0.97" height="0.97"/>
			<rect x="0.88" y="12.88" class="st3" width="0.97" height="0.97"/>
			<rect x="0.88" y="11.91" class="st3" width="0.97" height="0.97"/>
			<rect x="0.88" y="10.94" class="st1" width="0.97" height="0.97"/>
			<rect x="0.88" y="9.97" class="st1" width="0.97" height="0.97"/>
			<rect x="-0.09" y="25.49" class="st3" width="0.97" height="0.97"/>
			<rect x="-0.09" y="24.52" class="st3" width="0.97" height="0.97"/>
			<rect x="-0.09" y="23.55" class="st3" width="0.97" height="0.97"/>
			<rect x="-0.09" y="22.58" class="st3" width="0.97" height="0.97"/>
			<rect x="-0.09" y="21.61" class="st3" width="0.97" height="0.97"/>
			<rect x="-0.09" y="20.64" class="st3" width="0.97" height="0.97"/>
			<rect x="-0.09" y="19.67" class="st3" width="0.97" height="0.97"/>
			<rect x="-0.09" y="18.7" class="st3" width="0.97" height="0.97"/>
			<rect x="-0.09" y="17.73" class="st3" width="0.97" height="0.97"/>
			<rect x="-0.09" y="16.76" class="st3" width="0.97" height="0.97"/>
			<rect x="-0.09" y="15.79" class="st3" width="0.97" height="0.97"/>
			<rect x="-0.09" y="14.82" class="st3" width="0.97" height="0.97"/>
			<rect x="-0.09" y="13.85" class="st3" width="0.97" height="0.97"/>
			<rect x="-0.09" y="12.88" class="st3" width="0.97" height="0.97"/>
			<rect x="-0.09" y="11.91" class="st3" width="0.97" height="0.97"/>
			<rect x="-0.09" y="10.94" class="st1" width="0.97" height="0.97"/>
		</g>
		<g>
		</g>
	</g>
</g>
</svg>
