<?xml version="1.0" encoding="utf-8"?>
<!-- Generator: Adobe Illustrator 26.3.1, SVG Export Plug-In . SVG Version: 6.00 Build 0)  -->
<svg version="1.1" id="Calque_1" xmlns="http://www.w3.org/2000/svg" xmlns:xlink="http://www.w3.org/1999/xlink" x="0px" y="0px"
	 viewBox="0 0 1080 1080" style="enable-background:new 0 0 1080 1080;" xml:space="preserve">
<style type="text/css">
	.st0{fill:#FFFFFF;stroke:#FFFFFF;stroke-width:14.3076;stroke-miterlimit:10;}
	.st1{fill:#0A60A7;}
	.st2{fill:#E2382F;}
	.st3{fill:#1D1A1E;}
	.st4{fill:#1C191D;}
	.st5{fill:#211D22;}
</style>
<g>
	<rect x="18.82" y="373.64" class="st0" width="1045.31" height="330.06"/>
	<g>
		<path class="st1" d="M204.55,396.78c-1.2,1.29-3.58,2.89-3.34,3.8c0.41,1.57,2.25,3.43,3.86,3.89c4.36,1.25,8.95,1.64,13.36,2.76
			c2.71,0.69,5.48,1.72,7.78,3.26c2.46,1.65,2.13,5.37-0.22,7.48c-2.43,2.18-4.65,0.85-5.72-1.2c-5.61-10.76-15.89-9.63-25.42-10.12
			c-4.39-0.23-8.85,0.23-13.25,0.71c-4.54,0.5-5.33,1.96-3.73,6.26c1.69,4.54,3.48,9.04,5.28,13.53c1.07,2.68,2.78,3.86,5.96,3.44
			c5.08-0.67,10.25-1.05,15.37-0.99c3.07,0.03,6.24,0.79,9.15,1.83c2.91,1.05,4.58,3.34,3.32,6.94c-10.13-5.1-20.41-4.23-30.94-1.54
			c-6.44,1.64-13.13,3.11-19.73,3.21c-8.81,0.13-13.18-6.19-11-14.24c1.6-5.91,6.33-7.71,11.51-4.29c1.83,1.21,3.67,2.98,5.47,0.49
			c1.86-2.57,0.2-4.52-1.93-6.09c-7.63-5.65-17.4-2.69-20.6,6.24c-4.51,12.58,2.55,23.98,15.95,24.55
			c6.14,0.26,12.44-1.14,18.52-2.48c7.97-1.76,15.8-4.08,24.03-1.94c1.75,0.45,3.42,1.22,5.08,1.82
			c-2.18,8.02-5.26,10.25-12.76,8.77c-4.14-0.82-8.19-2.3-12.13-3.85c-3.15-1.24-5.57-0.47-7.69,1.76
			c-4.39,4.63-11.24,19.58-12.23,26.54c5.44-2.07,10.85-4.13,16.25-6.19c0.29,0.47,0.57,0.95,0.86,1.42
			c-0.88,1.27-1.76,2.54-2.74,3.96c3.24,0,6.38-0.47,9.29,0.17c1.84,0.4,4.08,2.18,4.66,3.85c0.35,1-1.92,4.07-3.39,4.37
			c-6.67,1.36-13.46,2.75-20.22,2.85c-13.45,0.2-25.73,3.08-36.06,12.19c-0.48,0.42-1.21,0.57-1.87,0.87
			c0.92-8.79,2.37-17.32,2.62-25.89c0.62-21.27-0.33-42.33-13.17-60.76c-4.95-7.1-10.7-13.39-18.17-17.9
			c-6.56-3.97-17.4-1.65-22.52,4.07c-1.59,1.78-4.62,2.26-7.14,3.41c0.24,0.26,0.66,1.13,1.3,1.34c4.05,1.28,7.55,2.76,8.63,7.72
			c0.29,1.35,3.37,2.09,5.18,3.1c1.25,0.7,2.57,1.29,3.71,2.13c0.22,0.16-0.3,1.86-0.41,1.85c-1.48-0.12-3.14-0.05-4.39-0.72
			c-2.11-1.14-4.03-2.68-5.89-4.22c-2.74-2.25-5.51-3.04-9.1-1.88c-4.18,1.36-8.58,2.02-12.85,3.11c-0.7,0.18-1.25,0.96-1.99,2
			c5.6-0.96,8.9,1.17,11.29,6.07c1.74,3.57,5.75,2.86,9.25,2.65c1.7-0.1,3.45,0.67,5.07,1.98c-6.88,0.35-13.29,0.01-19.83,3.27
			c-5.85,2.92-12.27,4.44-16.09,10.74c0.86-0.12,1.76-0.13,2.58-0.38c4.44-1.35,8.31-1.44,12.28,2.05c3.7,3.25,8.5,2.09,13.12,1.2
			c3.62-0.7,7.53-0.82,11.17-0.25c3.27,0.51,5.17,3.4,4.54,6.74c-0.99,5.27-1.9,10.73-4.02,15.59c-4.34,9.95-4.16,19.94-2.01,30.18
			c0.16,0.78,0.62,1.49,1.31,3.09c1.08-2.49,1.8-4.26,2.61-5.98c1.54-3.28,3.19-6.88,7.46-6.65c4.41,0.24,5.47,4.23,6.34,7.63
			c1.74,6.84,1.2,13.59-1.89,20.03c-4.29,8.91-13.04,11.58-21.42,6.23c-3.09-1.97-5.75-4.67-8.41-7.24
			c-8.84-8.55-26.79-8.53-35.59,0.06c-1.51,1.47-3.43,2.5-5.07,3.85c-1.74,1.44-3.06,3.08-1.06,5.48c7.91-5.39,15.52,0.98,23.2,0.02
			c-5.58,1.26-11.68,1.53-16.61,4.07c-4.82,2.48-11.37,4.51-12.03,12.44c2-0.67,3.56-1.64,5.09-1.59c2.46,0.07,5.25,0.2,7.27,1.38
			c6.85,4.01,6.74,4.19,13.15-1.01c0.3-0.25,0.74-0.33,1.18-0.51c2.27,2.37,0.84,3.99-1.17,5.12c-3.08,1.74-4.8,4.18-5.55,7.66
			c-0.37,1.7-1.67,3.25-2.71,4.76c-2.52,3.66-3.98,7.53-3.2,11c3.69,0.17,6.92,0.23,10.14,0.47c5.09,0.39,9.52-0.9,13.5-4.23
			c2.48-2.08,5.24-4,8.17-5.33c3.77-1.7,7.54-1.14,10.71,1.84c3.9,3.67,4.1,6.76,1.1,12.49c3.67-1.58,7.61-2.73,10.97-4.81
			c13.01-8.03,26.62-7.42,38.32,2.64c4.59,3.94,8.42,8.77,12.25,12.81c-0.71-4.33-1.9-9.18-2.21-14.09
			c-0.4-6.38,2.17-10.35,7.18-12.36c5.49-2.2,10.53-1.23,14.51,3.06c2.49,2.68,4.73,5.77,6.4,9.02
			c6.69,12.99,16.61,21.75,30.9,25.78c4.8,1.35,9.29,4.21,13.55,6.95c2.9,1.86,4.64,5.49,2.95,8.6c-1.3,2.4-4.28,4.53-6.96,5.43
			c-6.31,2.11-12.84,1.01-18.92-1.19c-8.83-3.2-17.44-7.04-26.16-10.56c-10.86-4.39-21.67-9.09-33.74-8.67
			c-10.82,0.38-21.14,2.59-26.41,13.36c-5.61,11.45-5.66,23.13,1.47,34.23c4.15,6.46,9.39,11.63,16.29,15.38
			c5.21,2.83,9.99,6.58,14.57,10.38c3.93,3.26,4.95,7.85,3.24,10.62c-1.92,3.1-6.57,4.79-11.17,3.19
			c-6.17-2.15-12.24-4.69-18.13-7.53c-7.83-3.77-15.92-5.58-23.89-1.7c-7.43,3.61-14.4,8.24-21.29,12.85c-2,1.34-3.02,4.16-4.48,6.3
			c0.29,0.33,0.59,0.65,0.88,0.98c0.93-0.37,1.88-0.69,2.79-1.11c2.78-1.31,5.16-1.57,7.75,0.91c4.49,4.32,9.83,4.2,15.16,0.74
			c3.07-1.99,6.51-3.44,9.86-4.98c0.85-0.39,1.97-0.19,2.97-0.26c0.2,0.5,0.4,1.01,0.61,1.51c-2.18,1.26-4.23,3.05-6.58,3.67
			c-4.44,1.17-7.89,2.88-9.33,7.7c-0.35,1.16-2.43,2.58-3.72,2.58c-22.59,0.14-45.17,0.08-67.76,0.05c-0.25,0-0.51-0.18-0.98-0.35
			c0-109.98,0-220.02,0-330.4c1.05-0.06,2-0.16,2.95-0.16c61.04-0.01,122.08-0.01,183.13,0c0.85,0,1.7,0.11,2.56,0.17
			C204.52,381.47,204.54,389.13,204.55,396.78z M181.71,477.23l0.18-0.25l-0.32-0.02L181.71,477.23z"/>
		<path class="st2" d="M204.55,396.78c-0.01-7.66-0.03-15.31-0.04-22.97c1.28-0.06,2.56-0.19,3.85-0.19
			c60.76-0.01,121.53-0.01,182.29-0.01c1.26,0,2.51,0,3.97,0c0,110.41,0,220.48,0,330.76c-29.86,0-59.63,0-88.93,0
			c4.56-5.15,9.13-10.51,13.99-15.61c1.12-1.17,3.17-1.61,4.88-2.05c5.71-1.48,11.46-2.81,17.72-4.32
			c-0.86-1.79-1.07-2.63-1.58-3.22c-3.94-4.58-4.03-9.85-2.92-15.37c0.78-3.91,1.73-7.8,2.25-11.74c0.84-6.43-0.84-12.16-5.54-16.83
			c-2.53-2.51-5.01-5.09-7.65-7.48c-4.09-3.7-7.14-7.82-6.29-14.85c-2.49,1.92-4.26,3.15-5.87,4.56
			c-4.09,3.56-7.88,7.52-12.28,10.65c-1.99,1.41-5.52,2.3-7.64,1.51c-3.29-1.22-4.67-4.58-4.48-8.46c0.36-7.4,0.73-14.83,0.45-22.23
			c-0.14-3.87-1.65-7.69-2.42-11.02c6.07-4.17,12.67-7.9,18.29-12.75c8.34-7.21,10.69-16.96,8.85-27.63
			c-2.79-16.19,5.55-31.14,20.84-36.92c3.6-1.36,7.16-2.87,10.83-4.01c12.86-4,19.39-13.84,23.92-25.57
			c0.11-0.28-0.18-0.72-0.28-1.08c0.21,0.01,0.43,0.03,0.64,0.04c-0.01-0.14-0.01-0.27-0.02-0.41c-0.19,0.15-0.38,0.31-0.57,0.46
			c-3.94,1.52-7.79,3.47-11.86,4.39c-2.33,0.53-5.05-0.63-7.63-1.5c14.83-9.93,22.16-24.42,27.8-40.91
			c-4.42,2.89-7.97,5.9-12.06,7.68c-4.09,1.78-8.72,2.32-13.45,2.86c7.67-5.03,13.77-10.82,14.32-20.54
			c0.49-8.58-0.17-16.96-3.13-25.01c-0.97,4.44-1.43,8.94-3,13.02c-1.53,3.98-4.19,7.53-6.36,11.27c-0.36-0.13-0.72-0.27-1.07-0.4
			c0.12-1.33,0.24-2.67,0.37-4c1.75-18.51-13.83-33.6-32.37-32.37c-17.31,1.15-30.67,13.13-34.76,33.9
			c-1.55,7.85-1.43,15.53,1.44,23.16c3.18,8.44,1.64,16.86-0.83,25.19c-0.47,1.59-0.96,3.17-1.47,4.86
			c9.1-0.82,17.26-10.49,17.06-20.64c-0.13-6.82-1.27-13.62-1.73-20.44c-0.26-3.82-0.05-7.67-0.05-12.11
			c3.52,3.94,6.63,7.43,9.53,10.67c0-7.52-0.72-14.8,0.16-21.89c1.62-13.09,6.98-14.39,20.22-11.12
			c10.72,2.65,15.72,13.44,12.51,24.05c-3.18,10.56-10.2,18.71-17.3,26.73c-10.16,11.47-19.76,23.34-25.91,37.51
			c-6.46,14.89-7.24,29.71,1.17,44.39c2,3.49,3.24,7.64,3.9,11.64c1.48,8.99-2.48,15.79-9.8,20.79c-2,1.37-4.09,2.61-6.22,3.77
			c-4.92,2.67-9.11,3.49-14.6-0.42c-6.03-4.28-13.7-6.19-20.47-9.5c-11.68-5.72-20.54-27.63-16.31-39.77
			c0.31-0.9,0.84-1.72,1.09-2.23c2.32,4.08,4.66,8.18,7,12.29c0.52-0.12,1.05-0.25,1.57-0.37c0.49-8.27,5.92-13.9,10.17-20.17
			c10.81-15.92,19.14-32.9,19.75-52.51c0.22-7-1-14.19-2.64-21.03c-1.04-4.32-1.28-7.6,2-10.87c1.88-1.88,3.34-4.18,5.32-6.73
			c-3.83,0-7.16,0-10.8,0c0.57-2.04,1.05-3.74,1.7-6.04c-13.64,0.86-23.34-6.88-33.17-14.13
			C229.79,395.38,217.49,394.59,204.55,396.78z M378.96,440.79c-0.1,0.09-0.26,0.18-0.27,0.27c-0.01,0.1,0.14,0.21,0.22,0.31
			c0.09-0.09,0.25-0.18,0.26-0.28C379.19,441,379.04,440.89,378.96,440.79z"/>
		<path class="st3" d="M880.68,516.7c10.57,0,20.97-0.1,31.37,0.14c1.23,0.03,2.76,1.72,3.59,3
			c23.05,35.46,46.03,70.96,69.03,106.46c0.75,1.16,1.52,2.31,2.92,4.43c0-38.58,0-76.12,0-113.84c12.57,0,24.65,0,36.92,0
			c0,62.54,0,124.89,0,187.73c-10.48,0-21.02,0.09-31.54-0.13c-1.1-0.02-2.43-1.66-3.2-2.84c-16.19-24.97-32.31-49.98-48.45-74.98
			c-7.63-11.82-15.28-23.64-23.62-36.54c0,38.83,0,76.46,0,114.29c-12.58,0-24.67,0-37.01,0
			C880.68,641.94,880.68,579.5,880.68,516.7z"/>
		<path class="st3" d="M844.42,611.06c-1.14,14.33-1.55,28.76-3.56,42.97c-3.91,27.55-28.45,47.49-53.83,51.28
			c-21.3,3.18-41.12-0.47-58.43-14.29c-14.22-11.36-22.25-26.28-22.95-44.09c-0.93-24.05-1.27-48.21-0.01-72.23
			c1.9-36.06,31.19-55.33,55.55-58.64c19.45-2.64,37.73,0.01,54.18,11.61c17.33,12.23,25.85,29.26,27.08,49.98
			c0.65,11.08,0.12,22.24,0.12,33.36C843.19,611.01,843.8,611.04,844.42,611.06z M740.42,610.25c0.61,0.03,1.22,0.05,1.83,0.08
			c0,10.12-0.61,20.29,0.22,30.34c0.52,6.35,2.11,13.13,5.14,18.66c6.06,11.05,20.29,16.15,33.1,13.26
			c13.81-3.11,22.63-12.91,24.13-27.44c2.33-22.46,2.42-44.97,0.11-67.44c-1.84-17.95-11.1-27.21-29.13-29.45
			c-14.32-1.78-29.26,7.88-31.67,22.08C741.93,583.48,741.59,596.93,740.42,610.25z"/>
		<path class="st3" d="M690.93,516.9c-7.84,15.39-15.5,30.42-23.16,45.44c-10.65,20.88-21.33,41.75-31.88,62.68
			c-0.97,1.93-1.44,4.31-1.45,6.49c-0.1,22.7-0.06,45.4-0.06,68.1c0,1.54,0,3.07,0,4.79c-12.36,0-24.43,0-36.86,0
			c0-1.6,0-2.99,0-4.39c0-22.7,0.07-45.4-0.09-68.1c-0.02-2.85-0.74-5.96-2.03-8.51c-17.19-33.97-34.54-67.87-51.84-101.78
			c-0.75-1.48-1.39-3.01-2.28-4.93c13.02,0,25.58-0.08,38.13,0.13c1.14,0.02,2.7,1.69,3.3,2.96c10.8,23,21.48,46.06,32.2,69.1
			c0.35,0.75,0.78,1.46,1.51,2.81c4.67-10.21,9.09-19.89,13.52-29.57c6.43-14.08,12.91-28.13,19.23-42.26
			c1.09-2.43,2.4-3.29,5.09-3.25c11,0.17,22,0.07,33.01,0.08C688.34,516.7,689.42,516.81,690.93,516.9z"/>
		<path class="st4" d="M430.81,703.7c0-62.51,0-124.87,0-187.44c12.18,0,24.27,0,36.7,0c0,51.38,0,102.74,0,154.46
			c28.43,0,56.52,0,84.88,0c0,11.14,0,21.93,0,32.98C512.06,703.7,471.68,703.7,430.81,703.7z"/>
		<path class="st2" d="M210.83,690.63c-7.32-8.37-15.84-7.2-24.48-5.45c1.08-5.26,4.52-7.32,13.08-8.11
			c-1.22-3.55-3.99-5.28-7.15-5.89c-5.57-1.08-11.25-1.6-16.88-2.42c-8.78-1.27-10.66-3.68-10.49-13.3
			c0.13-7.21,4.27-11.97,11.4-12.46c4.39-0.3,8.89-0.31,13.25,0.25c14.28,1.84,26.9-1.39,37.55-11.34c0.62-0.58,1.33-1.08,2.04-1.57
			c0.34-0.23,0.77-0.32,1.27-0.52c1.24,3,2.21,6.08,3.73,8.86c5.93,10.81,15.64,15.74,27.51,17.1c7.92,0.91,15.93,1.37,23.74,2.88
			c3.31,0.64,7.13,2.76,9.11,5.41c4.37,5.87,0.94,13.01-6.37,13.85c-3.14,0.36-6.46-0.38-9.64-0.95c-6.7-1.19-13.32-3.35-20.04-3.64
			c-3.86-0.17-8.2,1.96-11.7,4.09c-4.69,2.86-8.92,6.55-13.06,10.2c-2.41,2.12-4.26,4.87-6.36,7.33c0.37,0.43,0.74,0.86,1.12,1.29
			c1.25-0.41,2.5-0.8,3.74-1.25c3.08-1.11,5.7-1.17,7.78,2.08c2,3.13,5.09,3.06,7.89,1.24c2.73-1.78,5.04-4.2,7.73-6.05
			c1.4-0.96,3.23-1.31,5.16-1.34c-3.68,4.83-10.98,6.09-11.45,13.52c-26.02,0-51.99,0-77.97,0c-0.13-0.2-0.27-0.4-0.4-0.6
			c1.03-0.55,2.18-1.73,3.07-1.56c6.46,1.25,11.77-0.63,16.96-4.57C196.49,693.54,202.34,689.46,210.83,690.63z"/>
		<path class="st5" d="M858.17,479.7c0-35.3,0-70.39,0-105.93c9.48,0,18.86-0.16,28.23,0.05c6.67,0.15,13.54-0.11,19.95,1.38
			c15.28,3.54,24.37,14.95,25.21,32.47c0.67,13.91,0.45,27.97-0.76,41.84c-1.63,18.73-15.12,30.34-33.86,30.53
			c-12.57,0.13-25.14,0.01-37.71-0.01C858.97,480.02,858.72,479.87,858.17,479.7z M869.98,469.42c9.11,0,18.14,0.73,27.01-0.17
			c13.68-1.4,20.55-7.54,21.95-21.29c1.39-13.67,1.24-27.6,0.55-41.35c-0.52-10.44-6.05-19.03-16.97-20.89
			c-10.66-1.82-21.68-1.6-32.54-2.28C869.98,412.89,869.98,441.13,869.98,469.42z"/>
		<path class="st5" d="M743.23,383.93c0,12.68,0,24.77,0,37.23c15.39,0,30.61,0,46.01,0c0,3.62,0,6.86,0,10.46
			c-15.21,0-30.44,0-45.93,0c0,12.83,0,25.3,0,38.08c18.03,0,35.99,0,54.2,0c0,3.49,0,6.69,0,10.13c-22.01,0-43.95,0-66.13,0
			c0-35.22,0-70.42,0-105.84c21.99,0,43.94,0,66.13,0c0,3.22,0,6.42,0,9.94C779.49,383.93,761.54,383.93,743.23,383.93z"/>
		<path class="st5" d="M970.4,431.75c0,12.83,0,25.19,0,37.88c17.96,0,35.92,0,54.09,0c0,3.55,0,6.77,0,10.21
			c-21.82,0-43.62,0-65.71,0c0-35.1,0-70.28,0-105.77c21.76,0,43.68,0,65.77,0c0,3.17,0,6.41,0,9.99c-18.06,0-36.01,0-54.14,0
			c0,12.39,0,24.46,0,37.01c15.35,0,30.68,0,46.18,0c0,3.72,0,6.96,0,10.68C1001.25,431.75,985.92,431.75,970.4,431.75z"/>
		<path class="st5" d="M422.49,373.86c4.36,0,8.2,0,12.4,0c9.02,28.01,18.04,56.06,27.36,85.01c9.27-28.77,18.29-56.81,27.36-84.97
			c4.05,0,8.03,0,12.34,0c-4.98,15.22-9.9,30.29-14.84,45.35c-6.02,18.33-12.24,36.6-17.96,55.03c-1.43,4.61-3.36,6.77-8.19,5.8
			c-0.96-0.19-1.99-0.03-3.52-0.03C445.86,444.87,434.26,409.62,422.49,373.86z"/>
		<path class="st5" d="M560.61,373.96c3.87,0,7.51,0,11.51,0c0,31.93,0,63.68,0,95.72c18.15,0,35.95,0,54,0c0,3.49,0,6.68,0,10.13
			c-21.74,0-43.51,0-65.51,0C560.61,444.66,560.61,409.49,560.61,373.96z"/>
		<path class="st4" d="M711.81,469.63c0,3.67,0,6.76,0,10.13c-21.84,0-43.62,0-65.63,0c0-35.18,0-70.36,0-105.77
			c3.65,0,7.29,0,11.32,0c0,31.84,0,63.6,0,95.64C675.71,469.63,693.53,469.63,711.81,469.63z"/>
		<path class="st5" d="M529.86,479.93c-3.78,0-7.33,0-11.2,0c0-35.2,0-70.48,0-105.96c3.61,0,7.27,0,11.2,0
			C529.86,409.13,529.86,444.3,529.86,479.93z"/>
	</g>
</g>
</svg>
