<?xml version="1.0" encoding="utf-8"?>
<!-- Generator: Adobe Illustrator 26.3.1, SVG Export Plug-In . SVG Version: 6.00 Build 0)  -->
<svg version="1.1" id="Calque_1" xmlns="http://www.w3.org/2000/svg" xmlns:xlink="http://www.w3.org/1999/xlink" x="0px" y="0px"
	 viewBox="0 0 1080 1080" style="enable-background:new 0 0 1080 1080;" xml:space="preserve">
<style type="text/css">
	.st0{fill:#FFFFFF;}
</style>
<g>
	<path class="st0" d="M1076.78,252.87c0,7.54,0,14.84,0,22.36c-236.62,0-472.99,0-709.63,0c0-7.49,0-14.8,0-22.36
		C603.6,252.87,839.98,252.87,1076.78,252.87z"/>
	<path class="st0" d="M681.25,127.45c0,7.58,0,14.78,0,22.24c-179.86,0-359.55,0-539.52,0c0-7.39,0-14.69,0-22.24
		C321.55,127.45,501.24,127.45,681.25,127.45z"/>
	<path class="st0" d="M464.07,378.28c0,7.59,0,14.91,0,22.46c-153.56,0-306.89,0-460.39,0c0-7.6,0-14.91,0-22.46
		C157.13,378.28,310.34,378.28,464.07,378.28z"/>
	<path class="st0" d="M644.01,355.24c-4.48,0-8.75,0-13.61,0c0-2.79,0-5.52,0-8.25c0-8.08,0.08-16.15-0.04-24.23
		c-0.08-5.29-2.57-8.23-7.06-8.84c-4.42-0.59-8.25,2.04-9.51,6.93c-0.62,2.39-0.86,4.93-0.89,7.41c-0.1,8.88-0.04,17.77-0.04,26.9
		c-4.58,0-8.84,0-13.59,0c-0.08-1.4-0.22-2.86-0.23-4.32c-0.02-9.05,0.04-18.1-0.04-27.15c-0.06-6.09-2.34-9.15-6.96-9.75
		c-4.85-0.63-8.79,2.28-10.14,7.85c-0.58,2.4-0.76,4.94-0.8,7.42c-0.12,8.35-0.09,16.71-0.13,25.06c0,0.24-0.21,0.48-0.42,0.92
		c-4.19,0-8.46,0-13.08,0c0-17.04,0-34.05,0-51.32c3.81,0,7.5,0,11.52,0c0.31,2.04,0.63,4.13,0.97,6.38
		c14.99-10.81,21.15-10.64,29.9,1.03c1.22-1.3,2.35-2.62,3.61-3.8c5.9-5.53,12.76-6.48,20.15-3.81c6.82,2.46,10.1,7.92,10.29,14.8
		C644.25,330.66,644.01,342.87,644.01,355.24z"/>
	<path class="st0" d="M45.88,60.57c5.93-6.93,12.22-10.81,21-8.76c7.59,1.78,12.81,6.43,13.16,14.18
		c0.57,12.63,0.15,25.3,0.15,38.24c-4.25,0-8.5,0-13.22,0c-0.08-1.46-0.22-2.92-0.22-4.39c-0.02-9.19,0.08-18.39-0.05-27.58
		c-0.08-5.7-2.57-8.77-7.03-9.33c-4.79-0.6-8.39,2.1-9.76,7.65c-0.53,2.13-0.64,4.4-0.66,6.61c-0.08,7.52-0.03,15.04-0.03,22.56
		c0,1.37,0,2.74,0,4.43c-4.7,0-9.05,0-13.95,0c0-7.49,0-14.82,0-22.16c0-3.62,0.01-7.24-0.05-10.86c-0.07-4.05-1.86-6.96-5.92-8.06
		c-3.79-1.02-8.22,0.75-9.83,4.5c-1.18,2.73-1.85,5.86-1.93,8.83c-0.24,9.16-0.09,18.33-0.09,27.79c-4.74,0-9.11,0-13.77,0
		c0-17.02,0-33.93,0-51.14c3.81,0,7.63,0,11.81,0c0.21,2.04,0.42,4.07,0.7,6.85c4.42-4.54,8.77-8.69,15.16-8.68
		C37.89,51.26,42.8,54.21,45.88,60.57z"/>
	<path class="st0" d="M556.06,355.28c-4.73,0-8.87,0-13.71,0c0-3.37,0.03-6.63-0.01-9.9c-0.09-8.2-0.05-16.41-0.37-24.61
		c-0.15-3.99-2.76-6.35-6.69-6.8c-3.77-0.44-7.06,0.86-8.56,4.52c-1.03,2.51-1.66,5.33-1.74,8.04c-0.24,7.93-0.11,15.87-0.12,23.8
		c0,1.5,0,3.01,0,4.8c-4.72,0-9.08,0-13.93,0c0-6.33,0.01-12.55,0-18.77c-0.01-4.73,0.06-9.47-0.07-14.2
		c-0.11-3.97-1.7-6.98-5.93-7.99c-3.94-0.94-8.05,0.67-9.86,4.4c-1,2.07-1.72,4.48-1.8,6.75c-0.26,8.34-0.2,16.7-0.26,25.05
		c-0.01,1.5,0,3.01,0,4.77c-4.76,0-9.12,0-13.7,0c0-17.05,0-33.97,0-51.2c3.71,0,7.39,0,11.61,0c0.32,2,0.68,4.2,1.04,6.48
		c13.94-11.22,20.45-11.09,29.72,0.58c1.83-1.66,3.55-3.46,5.5-4.96c6.15-4.73,12.9-4.86,19.68-1.79c6.41,2.9,9,8.58,9.12,15.23
		C556.22,331.28,556.06,343.09,556.06,355.28z"/>
	<path class="st0" d="M431.45,178.35c4.03,0,7.62,0,11.43,0c0.39,2.2,0.76,4.33,1.15,6.56c13.56-11.34,20.64-11.14,29.74,0.82
		c0.97-1.02,1.9-2.05,2.88-3.03c5.79-5.74,12.56-7.32,20.31-4.76c7.53,2.49,10.81,8.41,11.09,15.62c0.48,11.93,0.13,23.9,0.13,36.14
		c-4.56,0-8.94,0-13.97,0c0-1.47,0-2.94,0-4.4c0-9.33,0.05-18.67-0.03-28c-0.04-5.31-2.47-8.31-6.93-8.89
		c-4.28-0.56-8.11,1.9-9.39,6.55c-0.77,2.78-1.09,5.75-1.13,8.64c-0.14,8.61-0.05,17.23-0.05,26.11c-4.57,0-8.8,0-13.57,0
		c0-8.67,0.03-17.25-0.01-25.84c-0.01-2.92,0.02-5.86-0.36-8.74c-0.48-3.69-2.69-6.13-6.47-6.64c-3.74-0.51-7.27,0.62-8.81,4.14
		c-1.41,3.21-2.29,6.88-2.42,10.39c-0.33,8.76-0.11,17.53-0.11,26.64c-4.56,0-8.9,0-13.48,0
		C431.45,212.59,431.45,195.66,431.45,178.35z"/>
	<path class="st0" d="M265.16,229.77c-4.87,0-9,0-13.61,0c0-9.62,0.02-19.04-0.02-28.47c-0.01-2.08-0.05-4.18-0.36-6.23
		c-0.55-3.71-2.75-6.11-6.5-6.6c-3.73-0.49-7.26,0.63-8.79,4.17c-1.39,3.22-2.29,6.88-2.43,10.38c-0.33,8.75-0.11,17.52-0.11,26.62
		c-4.42,0-8.65,0-13.28,0c0-16.89,0-33.9,0-51.17c3.64,0,7.34,0,11.28,0c0.36,2.02,0.73,4.11,1.13,6.36
		c13.49-11.21,21.09-10.99,29.51,0.67c2.29-1.94,4.47-4.03,6.88-5.81c8.21-6.08,25.41-3.19,27.29,11.6
		c0.24,1.93,0.57,3.86,0.58,5.79c0.06,10.81,0.03,21.63,0.03,32.66c-4.85,0-9.22,0-14.1,0c0-8.65,0-17.1,0-25.55
		c0-2.64,0.05-5.29-0.05-7.93c-0.15-4.09-2.14-6.82-6.24-7.75c-3.76-0.85-7.93,0.9-9.28,4.65c-1.16,3.19-1.75,6.73-1.85,10.14
		C264.99,212.05,265.16,220.79,265.16,229.77z"/>
	<path class="st0" d="M39.18,475.1c-7.08,7.19-14.97,8.41-23.44,5.05c-9.63-3.82-13.13-12.19-13.73-21.62
		c-0.33-5.27,0.29-10.97,2-15.95c5.3-15.43,22.66-19.6,34.72-8.77c0.49,0.44,1.02,0.84,1.81,1.48c0.5-2.17,0.92-3.99,1.39-6.01
		c3.51,0,6.93,0,10.53,0c0.17,0.54,0.48,1.04,0.48,1.54c-0.03,15.6,0.18,31.2-0.25,46.78c-0.27,9.56-4.66,17.35-13.67,21.29
		c-9.92,4.34-20.06,4.55-29.53-1.56c-4.25-2.74-6.82-6.82-7.42-12.42c4.06,0,7.93-0.07,11.8,0.06c0.8,0.03,1.76,0.59,2.34,1.2
		c4.2,4.41,9.79,5.55,15.54,3.06C36.93,486.99,39.62,482.13,39.18,475.1z M39.2,455.23c0-1.11,0.11-2.24-0.02-3.34
		c-0.77-6.82-5.41-11.85-11.13-12.17c-7.19-0.4-11.74,4.45-12.36,13.19c-0.68,9.58,3.65,16.54,10.67,17.16
		C34.16,470.76,39.24,464.93,39.2,455.23z"/>
	<path class="st0" d="M167.77,355.4c-2.79,0-5.28-0.12-7.75,0.03c-2.87,0.17-5.22-0.08-4.69-2.8c-4.94,1.38-9.99,3.9-15.07,3.95
		c-9.86,0.1-16.74-6-19.54-15.81c-2.07-7.23-2.17-14.61-0.17-21.85c4.19-15.19,19.08-20.93,32.47-12.7c0.2,0.12,0.5,0.07,1.29,0.16
		c0-4.04,0-8.02,0-12.01c0-3.87,0-7.74,0-11.87c4.72,0,8.97,0,13.45,0C167.77,306.74,167.77,330.76,167.77,355.4z M154.72,330.18
		c-0.91-3.76-1.26-7.14-2.56-10.08c-1.86-4.18-5.54-6.05-10.18-5.64c-4.53,0.4-6.85,3.43-7.98,7.39c-1.64,5.74-1.63,11.57,0.82,17.1
		c3.14,7.1,12.27,7.99,16.38,1.4C153.08,337.32,153.63,333.47,154.72,330.18z"/>
	<path class="st0" d="M36.86,181.24c0-8.41,0-16.29,0-24.39c4.45,0,8.56,0,13.01,0c0,24.21,0,48.36,0,72.82c-3.57,0-7.25,0-11.22,0
		c-0.38-1.06-0.84-2.33-1.43-3.99c-5.71,5.28-12.41,6.87-19.72,4.78c-10.22-2.93-14.67-10.91-15.5-20.58
		c-0.53-6.21-0.07-12.97,1.88-18.84c4.52-13.6,18.99-18.09,31.16-10.48C35.36,180.75,35.76,180.83,36.86,181.24z M36.92,203.68
		c-0.81-3.09-1.2-6.32-2.51-9.12c-1.93-4.13-5.56-6.01-10.23-5.55c-4.34,0.43-6.59,3.21-7.76,7.05c-1.66,5.45-1.62,10.94,0.25,16.33
		c1.38,3.98,4.03,6.6,8.48,6.8c4.37,0.19,7.61-1.91,9.25-5.77C35.66,210.43,36.07,207.08,36.92,203.68z"/>
	<path class="st0" d="M338.63,475.66c-5.56,4.81-10.67,7.58-17.12,6.43c-11.3-2-18.05-9.67-19.47-22.78
		c-0.84-7.75,0.21-15.32,4.53-22.05c6.97-10.83,20.61-12.56,30.22-3.95c0.49,0.44,1.02,0.83,1.81,1.48
		c0.41-1.95,0.76-3.56,1.16-5.46c3.88,0,7.82,0,12.02,0c0,22.87,0,45.62,0,68.66c-4.27,0-8.51,0-13.15,0
		C338.63,490.94,338.63,483.91,338.63,475.66z M338.58,455.34c-0.16-0.05-0.31-0.09-0.47-0.14c-0.13-1.8-0.12-3.62-0.41-5.39
		c-0.96-5.75-5.38-10.1-10.37-10.35c-5.3-0.26-10.02,3.18-10.81,9.45c-0.62,4.91-0.09,10.18,1.04,15.03c0.94,4.01,4.6,6.17,8.89,6.3
		c4.42,0.14,7.96-1.84,9.74-5.83C337.46,461.6,337.82,458.38,338.58,455.34z"/>
	<path class="st0" d="M174.85,476.61c0,3.6,0,7.16,0,10.73c0,3.46,0,6.92,0,10.66c-4.54,0-8.77,0-13.28,0c0-22.8,0-45.55,0-68.61
		c3.92,0,7.87,0,11.96,0c0.36,1.75,0.72,3.44,0.92,4.43c4.08-1.98,7.82-4.77,11.95-5.58c9.59-1.89,17.98,3.34,21.78,12.84
		c3.32,8.28,3.38,16.76,0.98,25.33c-4.41,15.79-23.64,21.12-33.15,10.32C175.88,476.58,175.51,476.66,174.85,476.61z M174.61,454.95
		c0.14,0.05,0.28,0.1,0.42,0.15c0.18,1.93,0.23,3.89,0.58,5.79c0.97,5.29,5.33,9.24,10.21,9.41c4.82,0.17,9.23-2.69,10.06-8.15
		c0.77-5.05,0.46-10.44-0.4-15.51c-0.73-4.23-4.09-6.86-8.66-7.12c-4.53-0.26-7.89,1.96-9.63,5.93
		C175.88,448.42,175.44,451.77,174.61,454.95z"/>
	<path class="st0" d="M321.29,225.03c0,7.42,0,13.91,0,20.65c-4.57,0-8.82,0-13.35,0c0-22.35,0-44.66,0-67.22c4.05,0,8.02,0,12.03,0
		c0.36,1.66,0.71,3.28,1.15,5.27c0.71-0.53,1.24-0.85,1.68-1.26c9.55-8.83,23.54-7.27,29.91,4c6.38,11.27,6.45,23.2,0.29,34.68
		c-5.85,10.89-21.5,13.63-29.68,5.34C322.97,226.11,322.49,225.87,321.29,225.03z M343.8,204.32c-0.42-2.65-0.62-5.02-1.2-7.29
		c-1.33-5.19-4.9-8.36-9.46-8.66c-4.18-0.28-9.23,2.8-10.13,7.74c-0.94,5.16-0.98,10.75-0.08,15.92c0.83,4.77,5.4,7.32,9.96,7.23
		c4.44-0.08,7.86-2.65,9.39-7.47C343.06,209.31,343.34,206.66,343.8,204.32z"/>
	<path class="st0" d="M252.36,480.65c0-11.05,0.08-21.74-0.04-32.43c-0.05-5.03-2.29-7.84-6.28-8.56c-4.43-0.8-8.22,1.16-10.21,5.38
		c-0.47,0.99-0.87,2.08-0.99,3.16c-0.32,3.03-0.61,6.08-0.65,9.12c-0.09,7.64-0.03,15.27-0.03,23.2c-4.62,0-8.99,0-13.64,0
		c0-24.03,0-48.04,0-72.39c4.46,0,8.81,0,13.58,0c0,8.22,0,16.35,0,25.4c5.45-4.39,10.83-6.34,17.11-5.5
		c7.48,0.99,13.89,5.63,14.31,12.96c0.76,13.13,0.21,26.33,0.21,39.66C261.56,480.65,257.29,480.65,252.36,480.65z"/>
	<path class="st0" d="M316.54,349.52c-6.13,5.12-12.65,8.43-20.77,6.87c-6.8-1.31-11.46-5.73-12.39-11.8
		c-1.16-7.58,1.36-13.92,8.19-16.5c6.13-2.32,12.87-3.02,19.36-4.36c1.2-0.25,2.47-0.18,3.65-0.25c1.11-4.78-0.38-8.18-4.1-9.64
		c-6.02-2.35-12.29,0.74-16.98,8.71c-3.28-1.89-6.58-3.78-10.16-5.84c3.52-7.9,9.58-12.31,17.63-13.75c3.89-0.7,8.07-0.62,12.01-0.1
		c9.61,1.26,15.53,8.34,15.57,18.02c0.03,5.42,0,10.85,0.01,16.27c0,7.36,0,7.36,7.37,6.84c-1.91,4.44,0.68,10.79-6.74,12.23
		C323.19,357.39,319.91,355.84,316.54,349.52z M314.94,332.18c-2.54,0.29-4.92,0.31-7.17,0.88c-2.92,0.75-6.05,1.48-8.48,3.12
		c-1.43,0.97-2.62,3.96-2.16,5.54c0.44,1.55,2.98,3.24,4.81,3.53C307.65,346.17,316.39,340.63,314.94,332.18z"/>
	<path class="st0" d="M134.13,474.93c-6.54,5.41-13.33,8.81-21.75,6.78c-6.72-1.62-10.95-6.26-11.83-12.93
		c-0.83-6.34,2.19-12.98,8.54-15.23c6.45-2.29,13.45-3.04,20.21-4.43c0.94-0.19,1.92-0.16,2.84-0.23c1.09-4.56-0.25-7.72-3.88-9.37
		c-5.88-2.68-11.79,0.16-17.49,8.54c-3.28-1.95-6.57-3.9-9.94-5.91c3.04-6.77,7.85-11.26,14.46-12.8
		c5.03-1.17,10.54-1.57,15.65-0.87c9.67,1.32,15,8.22,15.08,17.99c0.05,5.85,0,11.69,0.01,17.54c0.02,6.01,0.55,6.43,6.58,5.32
		c0.8,6.71-1.1,11.08-5.33,12.22C141.01,483.24,137.17,481.37,134.13,474.93z M132.47,457.73c-2.17,0.21-4.16,0.13-5.99,0.64
		c-3.41,0.94-6.95,1.84-9.99,3.55c-1.29,0.73-2.08,3.54-1.89,5.27c0.14,1.29,2.07,3.1,3.49,3.41
		C124.98,472.14,133.91,466.13,132.47,457.73z"/>
	<path class="st0" d="M880.64,323.32c0.57-4.98-1-8.17-4.48-9.51c-5.97-2.31-11.68,0.58-17.11,8.75c-3.19-1.88-6.38-3.77-9.91-5.86
		c1.97-5.03,5.34-8.56,9.8-10.97c7.47-4.03,15.41-4.56,23.42-1.97c7.63,2.46,11.66,8.25,11.76,16.35c0.08,5.98,0,11.97,0.02,17.95
		c0.02,6.31,0.6,6.8,6.68,5.8c0.89,6.28-1.14,11.01-5.25,12.17c-6.24,1.76-10.17-0.13-12.73-5.54c-4.97,2.03-9.73,4.75-14.84,5.89
		c-8.93,1.99-16.72-3-18.79-11.04c-2.14-8.33,2.04-15.62,11.08-18.72c3.25-1.11,6.74-1.59,10.15-2.14
		C873.75,323.95,877.07,323.71,880.64,323.32z M880.98,331.64c-5.11,1.2-9.84,2.01-14.36,3.48c-2.88,0.94-5.04,3.16-3.97,6.72
		c1.08,3.57,4.04,3.82,7.07,3.5C876.44,344.64,880.83,339.67,880.98,331.64z"/>
	<path class="st0" d="M245.78,81.67c-11.52,0-22.62,0-33.62,0c-0.96,5.31,1.59,9.94,6.09,11.78c5.8,2.37,11.22,0.13,16.03-6.89
		c3.62,1.24,7.36,2.53,11.1,3.81c-3.45,10.11-12.78,15.87-24.37,15.31c-11.39-0.55-20.24-7.69-22.7-18.67
		c-2.15-9.62-1.36-18.9,4.85-26.99c5.94-7.73,16.63-10.67,26.4-7.65c9.07,2.8,15.5,11.57,16.2,22.19
		C245.9,76.62,245.78,78.7,245.78,81.67z M212.55,71.23c6.24,0,12.5,0,18.82,0c-1.08-6-4.67-8.96-9.98-8.79
		C217.42,62.58,212.01,66.03,212.55,71.23z"/>
	<path class="st0" d="M300.91,90.46c-5.3,11.73-15.78,17.11-28.31,14.95c-11.27-1.95-19.17-11.63-20.01-24.51
		c-0.86-13.15,5.14-24.24,15.4-27.93c8.69-3.13,17.17-2.53,24.38,3.61c7.51,6.4,9.35,15.06,8.48,25.18c-11.45,0-22.68,0-33.87,0
		c-0.15,6.09,2.68,10.5,7.27,11.97c5.81,1.86,10.59-0.3,15.28-7.18C293.14,87.79,296.87,89.07,300.91,90.46z M286.54,71.33
		c-0.66-5.79-4.31-9.05-9.69-8.88c-5.27,0.16-8.89,3.68-8.95,8.88C274.11,71.33,280.31,71.33,286.54,71.33z"/>
	<path class="st0" d="M685.59,207.22c-11.64,0-22.85,0-34.05,0c-0.04,6.21,2.67,10.41,7.31,11.95c4.84,1.61,10.24,0.29,12.98-3.98
		c1.86-2.9,3.58-3.17,6.38-1.87c2.25,1.04,4.66,1.72,6.99,2.56c-2.97,9.72-13.03,16.01-24.06,15.4
		c-17.82-0.98-25.67-16.09-23.65-31.33c2.23-16.84,13.91-25.51,29.62-22.62c10.05,1.84,17.59,10.74,18.45,21.92
		C685.75,201.58,685.59,203.94,685.59,207.22z M671.29,197.01c-0.95-6.38-4.48-9.29-10.3-8.95c-5.04,0.29-8.36,3.69-8.54,8.95
		C658.65,197.01,664.84,197.01,671.29,197.01z"/>
	<path class="st0" d="M225.73,332.84c-6.05,0-11.59,0-17.12,0c-5.55,0-11.11,0-16.62,0c-0.7,5.14,1.83,9.72,6.2,11.57
		c4.7,1.99,10.81,0.9,13.49-3.43c2.24-3.6,4.4-3.29,7.47-1.88c2,0.92,4.15,1.54,6.22,2.28c-2.89,9.08-11.54,15.08-22.08,15.47
		c-10.45,0.38-19.71-5.35-23.53-14.76c-3.22-7.92-3.31-16.01-0.49-24.04c3.99-11.34,14.25-17.16,26.84-15.43
		c10.73,1.48,18.73,10.5,19.59,22.21C225.88,327.18,225.73,329.54,225.73,332.84z M211.28,322.49c-0.41-6.19-4.36-9.45-10.57-8.93
		c-4.93,0.42-8.32,4.23-7.94,8.93C198.94,322.49,205.1,322.49,211.28,322.49z"/>
	<path class="st0" d="M15.87,332.84c-0.05,6.33,2.39,10.14,7.24,11.79c4.92,1.68,9.96,0.45,12.93-4.02c1.92-2.9,3.73-2.98,6.45-1.79
		c2.27,0.99,4.64,1.75,7.24,2.71c-3.57,8.3-9.44,13.26-18.05,14.75c-9.95,1.72-18.59-0.78-24.89-8.97
		c-7.21-9.38-7.16-26.29,0.01-35.71c6.45-8.49,15.4-10.78,25.34-8.6c9.72,2.13,15.04,9.09,17.1,18.49
		c2.45,11.16,2.17,11.36-9.29,11.36C32.02,332.84,24.1,332.84,15.87,332.84z M35.34,322.58c-0.56-6.25-4.02-9.28-9.93-9.05
		c-5.28,0.21-8.65,3.66-8.69,9.05C22.82,322.58,28.92,322.58,35.34,322.58z"/>
	<path class="st0" d="M531.42,207.42c0.38,6.82,2.87,10.42,7.89,11.86c5.09,1.46,9.91-0.12,13.07-4.85
		c1.42-2.12,2.63-2.32,4.75-1.42c2.65,1.13,5.43,1.97,8.15,2.93c-4.14,11.04-14.3,16.56-27.07,15.01
		c-10.84-1.32-19.55-10.06-20.51-21.45c-0.43-5.04-0.25-10.38,0.95-15.27c2.78-11.31,13.16-18.28,24.77-17.48
		c11.46,0.79,20.07,8.9,21.8,20.54c1.51,10.14,1.51,10.14-8.87,10.14C548.05,207.42,539.75,207.42,531.42,207.42z M531.99,196.98
		c6.49,0,12.66,0,18.82,0c0.09-5.06-2.71-8.28-7.49-8.85C537.28,187.4,533.53,190.18,531.99,196.98z"/>
	<path class="st0" d="M107.88,207.08c-11.42,0-22.63,0-33.8,0c-0.25,6.1,2.42,10.42,7,12.04c5.69,2.02,10.38-0.03,15.64-7.06
		c3.63,1.26,7.37,2.56,11.14,3.86c-4.65,11.18-14.22,16.47-26.75,15.05c-10.72-1.22-19.44-9.29-20.72-20.3
		c-0.63-5.41-0.49-11.21,0.8-16.47c2.86-11.65,13.48-18.6,25.14-17.45c11.9,1.17,20.36,9.69,21.5,21.8
		C108.09,201.17,107.88,203.81,107.88,207.08z M93.41,197.09c-0.13-5.72-3.48-8.96-8.95-9.06c-5.7-0.1-9.48,3.4-9.63,9.06
		C80.93,197.09,87.03,197.09,93.41,197.09z"/>
	<path class="st0" d="M466.72,466.9c-4.32,10.8-15.06,16.92-26.06,15.27c-12.26-1.83-20.9-10.39-21.63-22.34
		c-0.32-5.18-0.01-10.67,1.43-15.61c3.31-11.36,12.86-17.18,25.04-16.29c10.76,0.79,18.88,8.3,20.99,19.4
		c2.04,10.77,1.92,10.92-9,10.92c-8.19,0-16.37,0-24.56,0c0.08,6.59,2.56,10.35,7.6,11.99c5.47,1.78,9.8-0.23,15.06-7.07
		c0.73,0.2,1.54,0.37,2.31,0.63C460.78,464.8,463.65,465.82,466.72,466.9z M452.37,448.04c-0.32-5.98-3.77-9.17-9.44-9.08
		c-5.43,0.08-8.92,3.49-9.17,9.08C439.87,448.04,445.97,448.04,452.37,448.04z"/>
	<path class="st0" d="M90.92,53.03c4.44,0,8.81,0,13.62,0c0,6.96,0,13.74,0,20.53c0,3.76-0.09,7.52,0.04,11.28
		c0.13,3.9,1.54,7.06,5.69,8.25c3.79,1.09,8.17-0.29,9.98-4.09c1.44-3.03,2.23-6.6,2.35-9.96c0.32-8.59,0.11-17.19,0.11-26.01
		c4.81,0,9.19,0,13.75,0c0,17.14,0,34.07,0,51.25c-4.21,0-8.18,0-12.31,0c-0.37-1.79-0.72-3.48-1.17-5.66
		c-3.71,4.13-7.45,6.95-12.81,7.03c-11.02,0.17-18.41-5.53-19.08-16.58C90.36,77.17,90.92,65.2,90.92,53.03z"/>
	<path class="st0" d="M971.18,330.41c-0.44-24.64,19.6-32.35,35.57-26.12c9.93,3.87,15.5,14.06,14.86,26.51
		c-0.98,19.36-16.26,30.39-34.2,24.69C977.24,352.24,971.71,343.7,971.18,330.41z M1008.25,329.48c-0.95-3.6-1.45-7.08-2.8-10.19
		c-1.67-3.82-4.89-5.89-9.31-5.81c-4.26,0.08-7.12,2.22-8.84,5.88c-3.13,6.68-3.05,13.46-0.04,20.15c1.7,3.77,4.84,5.71,8.94,5.77
		c4.1,0.06,7.47-1.76,9.09-5.51C1006.68,336.54,1007.28,332.96,1008.25,329.48z"/>
	<path class="st0" d="M443.1,302.25c17.06,0,27.78,12.16,26.52,28.69c-0.85,11.17-4.91,20.41-16.28,24.4
		c-19.11,6.71-36.15-7.37-34.13-27.98c1.29-13.12,7.19-21.21,17.74-24.07C439.35,302.63,441.87,302.44,443.1,302.25z M456.36,329.62
		c-0.98-3.59-1.55-7.19-2.95-10.43c-1.59-3.67-4.69-5.68-8.94-5.7c-4.26-0.02-7.18,1.99-8.98,5.64c-3.34,6.78-3.24,13.7-0.12,20.51
		c1.72,3.76,4.91,5.66,9.02,5.64c4.09-0.01,7.42-1.84,9.02-5.62C454.74,336.54,455.37,333.11,456.36,329.62z"/>
	<path class="st0" d="M686.63,303.84c4.81,0,9.08,0,13.72,0c0,16.97,0,34,0,51.3c-3.9,0-7.88,0-12.06,0
		c-0.37-1.65-0.75-3.38-1.27-5.76c-4.91,6.72-11.31,8.35-18.7,6.74c-7.28-1.6-12.71-7.19-13.21-15.81
		c-0.7-12.04-0.18-24.14-0.18-36.45c4.56,0,8.94,0,13.88,0c0,4.26,0,8.39,0,12.51c0,6.55,0.01,13.09,0.01,19.64
		c0,3.67,1.37,6.47,4.97,7.88c3.74,1.46,7.3,0.52,9.36-2.49c1.84-2.7,3.13-6.25,3.32-9.51c0.47-7.77,0.16-15.59,0.16-23.39
		C686.64,307.01,686.63,305.52,686.63,303.84z"/>
	<path class="st0" d="M1076.86,355.23c-4.76,0-9.03,0-13.85,0c0-3.32,0.01-6.49,0-9.65c-0.02-7.79,0.02-15.58-0.08-23.37
		c-0.05-3.82-1.64-6.72-5.59-7.81c-3.99-1.1-8.1,0.3-9.94,4.12c-1.28,2.66-2.1,5.78-2.18,8.73c-0.27,9.16-0.1,18.34-0.1,27.83
		c-4.69,0-9.17,0-13.88,0c0-17.01,0-33.92,0-51.45c3.05,0,6.06,0.18,9.05-0.04c4.97-0.37,2.19,4.62,4.62,6.19
		c5.16-6.78,12.02-8.98,20.21-6.58c7.05,2.06,11.29,7.19,11.6,14.24C1077.26,329.9,1076.86,342.41,1076.86,355.23z"/>
	<path class="st0" d="M712.52,355.24c0-17.32,0-34.24,0-51.39c3.91,0,7.61,0,11.53,0c0.45,1.87,0.9,3.72,1.46,6.07
		c0.73-0.62,1.25-0.95,1.64-1.4c5.53-6.32,12.35-7.61,20.05-4.97c7.63,2.61,10.76,8.7,10.99,16.12c0.36,11.68,0.1,23.38,0.1,35.4
		c-4.6,0-9.09,0-14.13,0c0-4.64,0-9.32,0-14c0-6.13,0.01-12.25-0.01-18.38c-0.01-4-1.51-7.06-5.6-8.27
		c-4.12-1.21-8.43,0.36-10.18,4.41c-1.28,2.97-1.91,6.39-2.04,9.64c-0.29,7.37-0.09,14.75-0.09,22.13c0,1.49,0,2.98,0,4.64
		C721.44,355.24,717.17,355.24,712.52,355.24z"/>
	<path class="st0" d="M363.09,429.3c4.72,0,8.99,0,13.8,0c0.06,1.38,0.18,2.84,0.18,4.3c0.02,9.05-0.03,18.11,0.03,27.16
		c0.03,5.13,2.28,8.26,6.31,9.06c3.99,0.8,8.53-1.42,10.12-5.65c1.05-2.79,1.44-5.94,1.53-8.95c0.21-7.1,0.05-14.2,0.07-21.31
		c0-1.48,0.13-2.97,0.21-4.64c4.63,0,8.88,0,13.44,0c0,17.08,0,34,0,51.23c-3.89,0-7.86,0-12.12,0c-0.35-1.5-0.74-3.19-1.24-5.38
		c-4.23,5.09-9.19,7.75-15.51,7c-10.35-1.23-16.19-7.24-16.71-18.48C362.68,452.4,363.09,441.11,363.09,429.3z"/>
	<path class="st0" d="M189.66,61.99c-2.73,2.51-5.48,5.03-8.4,7.71c-3.52-4.57-8.48-7.7-15.26-6.9c-2.59,0.31-5.64,0.83-5.4,3.86
		c0.13,1.59,2.67,3.57,4.55,4.3c3.33,1.3,6.97,1.79,10.49,2.59c10.64,2.42,15.17,7,15.08,15.3c-0.09,8.22-5.82,14.55-15.58,16.28
		c-9.82,1.75-18.83-0.39-26.21-7.49c-1.65-1.59-2.79-3.7-4.39-5.88c3.46-2.57,6.54-4.86,9.74-7.23c4.26,6.62,9.62,10.73,17.75,9.45
		c2.58-0.41,5.53-1.3,5.04-4.31c-0.26-1.63-2.79-3.47-4.67-4.14c-4.95-1.75-10.25-2.53-15.16-4.38
		c-7.13-2.69-10.29-7.53-10.15-14.16c0.13-6.25,4.1-11.35,10.8-13.89C169.43,48.74,182.85,52.48,189.66,61.99z"/>
	<path class="st0" d="M841.4,318.82c-4.06,1.51-7.77,2.89-11.66,4.33c-0.63-1.27-1.1-2.25-1.6-3.21c-2.05-3.88-5.21-6.27-9.65-6.16
		c-4.62,0.12-7.82,2.73-9.52,6.97c-2.21,5.5-2.22,11.15-0.35,16.73c1.5,4.49,4.75,7.2,9.49,7.66c4.6,0.45,8.02-1.76,10.52-5.5
		c0.69-1.03,1.23-2.16,2.08-3.66c3.43,1.83,6.8,3.63,10.13,5.41c-2.26,9.36-13.69,16.63-24.42,15.32
		c-16.42-2.01-25.25-15.23-22.19-33.2c2.57-15.06,15.96-24.12,30.73-20.56C833.14,304.93,838.56,310.12,841.4,318.82z"/>
	<path class="st0" d="M413.03,318.89c-3.84,1.44-7.46,2.79-11.36,4.25c-0.65-1.17-1.24-2.21-1.8-3.27c-2.05-3.92-5.26-6.2-9.69-6.08
		c-4.45,0.12-7.56,2.66-9.29,6.68c-2.28,5.32-2.34,10.82-0.7,16.32c1.46,4.88,4.73,7.89,9.83,8.35c4.77,0.43,8.24-1.96,10.67-5.95
		c0.57-0.94,1.11-1.9,1.87-3.2c3.48,1.87,6.86,3.69,10.21,5.49c-3.11,9.41-12.86,15.87-23.01,15.36c-12.2-0.6-21.07-7.96-23.5-19.4
		c-1.33-6.27-1.18-12.45,0.92-18.52c3.61-10.45,13.03-16.97,23.97-16.68C401.97,302.53,409.92,308.43,413.03,318.89z"/>
	<path class="st0" d="M3.89,11.28c98.35,0,196.38,0,294.49,0c1.06,2.65,0.7,4.06-2.48,3.92c-3.2-0.14-6.41-0.03-9.61-0.03
		c-92.78,0-185.56,0-278.34-0.01C5.66,15.16,2.4,16.02,3.89,11.28z"/>
	<path class="st0" d="M912.69,315.22c-3.21,0-5.81,0-8.69,0c0-3.85,0-7.4,0-11.41c2.65,0,5.36,0,8.76,0
		c-2.61-11.53,7.88-14.18,13.38-21.82c0,7.85,0,14.42,0,21.43c3.66,0,6.93,0,10.54,0c0,4.09,0,7.74,0,11.7c-3.32,0-6.48,0-10.2,0
		c0,8.99-0.15,17.7,0.18,26.39c0.05,1.17,2.41,2.9,3.94,3.2c1.92,0.38,4.08-0.43,6.14-0.73c1.4,7.08-1.33,11.35-8.09,12.53
		c-8.15,1.42-14.85-2.55-15.54-9.87c-0.61-6.49-0.34-13.06-0.42-19.59C912.65,323.32,912.69,319.58,912.69,315.22z"/>
	<path class="st0" d="M63.29,315.28c-2.97,0-5.69,0-8.66,0c0-3.93,0-7.48,0-11.56c2.79,0,5.63,0,9.03,0
		c-2.55-11.39,7.76-14.07,13.14-20.38c0,6.56,0,13.12,0,20.08c3.74,0,7.01,0,10.62,0c0,4.05,0,7.7,0,11.8c-3.34,0-6.61,0-10.28,0
		c0,8.9-0.11,17.35,0.06,25.8c0.06,2.85,2.03,4.15,4.89,3.78c1.91-0.24,3.8-0.6,6.24-0.99c-0.64,3.13-1.18,6.05-1.87,8.93
		c-0.17,0.72-0.69,1.64-1.3,1.94c-4.98,2.4-10.14,3.11-15.27,0.62c-4.66-2.26-6.31-6.45-6.35-11.36
		c-0.06-8.08-0.02-16.16-0.04-24.23C63.47,318.36,63.36,317.01,63.29,315.28z"/>
	<path class="st0" d="M141.95,156.76c4.61,0,8.76,0,13.25,0c0,24.34,0,48.56,0,73.01c-4.33,0-8.59,0-13.25,0
		C141.95,205.55,141.95,181.34,141.95,156.76z"/>
	<path class="st0" d="M273.22,282.47c0,24.36,0,48.39,0,72.67c-4.54,0-8.92,0-13.63,0c0-24.12,0-48.24,0-72.67
		C264.1,282.47,268.59,282.47,273.22,282.47z"/>
	<path class="st0" d="M298.49,1.97c0.81,2.26,0.5,3.62-2.2,3.49c-0.7-0.03-1.39,0-2.09,0c-95.31,0-190.62,0.01-285.94-0.04
		c-2.04,0-5.4,1.18-4.58-3.46C102.06,1.97,200.23,1.97,298.49,1.97z"/>
	<path class="st0" d="M298.54,24.3c-98.24,0-196.38,0-294.51,0c-0.3-0.33-0.6-0.66-0.9-0.99c0.93-0.87,1.77-1.91,2.84-2.54
		c0.62-0.37,1.63-0.08,2.47-0.08c95.26,0,190.52-0.01,285.78,0.04C296.31,20.72,299.77,19.6,298.54,24.3z"/>
	<path class="st0" d="M64.62,480.55c0-17.2,0-34.13,0-51.01c10.07-1.62,10.21-1.54,12.61,7.41c1.44-1.88,2.43-4.1,4.14-5.18
		c2.54-1.62,5.62-3.44,8.43-3.39c5.97,0.12,7.83,4.28,4.82,9.31c-1.28,2.13-2.56,4.26-3.85,6.41c-6.13-4.57-10.02-3.26-11.6,4.18
		c-0.82,3.89-0.6,8.01-0.66,12.04c-0.09,6.65-0.02,13.31-0.02,20.23C73.75,480.55,69.36,480.55,64.62,480.55z"/>
	<path class="st0" d="M377.73,178.56c0.58,2.32,1.16,4.68,1.87,7.51c1.52-2.07,2.59-3.68,3.81-5.16c2.52-3.03,5.75-4.3,9.66-3.49
		c5.37,1.11,6.83,4.39,4.06,9.02c-1.34,2.25-2.69,4.49-4.06,6.77c-5.98-4.84-10.91-2.98-11.69,4.78c-0.8,7.99-0.56,16.1-0.74,24.15
		c-0.06,2.46-0.01,4.93-0.01,7.62c-4.72,0-8.96,0-13.49,0c0-17.04,0-33.95,0-51.19C370.45,178.56,373.84,178.56,377.73,178.56z"/>
	<path class="st0" d="M575.22,229.67c0-17.07,0-33.98,0-51.16c3.46,0,6.87,0,10.63,0c0.54,2.21,1.12,4.56,1.84,7.51
		c1.45-1.96,2.49-3.51,3.68-4.93c3.03-3.59,6.89-4.78,10.79-3.42c4.9,1.71,5.83,4.2,3.21,8.6c-1.34,2.26-2.7,4.51-3.74,6.24
		c-2.67-0.73-5.83-2.6-7.08-1.72c-2.31,1.61-4.67,4.71-4.94,7.39c-0.83,8.13-0.67,16.35-0.87,24.54c-0.05,2.21-0.01,4.43-0.01,6.96
		C584.15,229.67,579.8,229.67,575.22,229.67z"/>
	<path class="st0" d="M278.01,429.31c4.54,0,8.92,0,13.53,0c0,17.11,0,34.03,0,51.23c-4.42,0-8.81,0-13.53,0
		C278.01,463.59,278.01,446.57,278.01,429.31z"/>
	<path class="st0" d="M960.83,355.21c-4.61,0-8.87,0-13.35,0c0-17.09,0-33.99,0-51.24c4.29,0,8.65,0,13.35,0
		C960.83,320.87,960.83,337.88,960.83,355.21z"/>
	<path class="st0" d="M193.97,229.74c0-17.27,0-34.18,0-51.3c4.46,0,8.71,0,13.26,0c0,17.07,0,34.06,0,51.3
		C202.86,229.74,198.62,229.74,193.97,229.74z"/>
	<path class="st0" d="M418.86,178.55c0,17.19,0,34.1,0,51.22c-4.5,0-8.74,0-13.26,0c0-17.08,0-33.98,0-51.22
		C409.86,178.55,414.21,178.55,418.86,178.55z"/>
	<path class="st0" d="M626.91,229.83c-4.51,0-8.65,0-13.13,0c0-17.14,0-34.14,0-51.37c4.3,0,8.55,0,13.13,0
		C626.91,195.47,626.91,212.47,626.91,229.83z"/>
	<path class="st0" d="M770.14,303.76c4.53,0,8.66,0,13.13,0c0,17.14,0,34.14,0,51.4c-4.28,0-8.53,0-13.13,0
		C770.14,338.15,770.14,321.15,770.14,303.76z"/>
	<path class="st0" d="M107.28,140.38c-34.53,0-68.99,0-103.42,0c-1.4-4.14,1.29-3.8,3.7-3.8c24.5,0.01,49,0,73.5,0
		c7.79,0,15.59,0.07,23.38-0.04C107.31,136.51,108.23,137.52,107.28,140.38z"/>
	<path class="st0" d="M107.31,127.4c0.95,2.82-0.12,3.75-2.71,3.66c-2.78-0.09-5.57-0.02-8.36-0.02c-29.53,0-59.06,0-88.59-0.01
		c-2.29,0-5.13,0.52-3.84-3.63C38.36,127.4,72.85,127.4,107.31,127.4z"/>
	<path class="st0" d="M224.58,265.88c-34.54,0-68.77,0-102.97,0c-0.58-3.63-0.58-3.75,2.56-3.76c32.59-0.03,65.18,0,97.76-0.06
		C224.72,262.06,225.35,263.18,224.58,265.88z"/>
	<path class="st0" d="M224.62,252.83c0.78,2.86-0.1,3.8-2.79,3.8c-32.6-0.07-65.19-0.07-97.79-0.01c-2.81,0-3.41-1.17-2.63-3.78
		C155.71,252.83,190.06,252.83,224.62,252.83z"/>
	<path class="st0" d="M3.78,252.82c27.87,0,55.68,0,83.48,0c0.56,3.69,0.56,3.8-2.42,3.8c-26.05,0.03-52.1-0.01-78.15,0.06
		C3.82,256.69,2.93,255.69,3.78,252.82z"/>
	<path class="st0" d="M3.85,265.8c-1.1-3.04,0.26-3.73,2.92-3.72c26.01,0.04,52.03,0.06,78.04-0.01c2.76-0.01,3.46,1.06,2.68,3.73
		C59.66,265.8,31.76,265.8,3.85,265.8z"/>
	<path class="st0" d="M55.41,149.95c-15.72,0-31.43,0-47.15,0c-1.11,0-2.27,0.15-3.32-0.12c-0.58-0.15-1.43-1.1-1.35-1.55
		c0.13-0.73,0.8-1.69,1.46-1.91c1.01-0.33,2.2-0.13,3.31-0.13c31.43,0,62.86,0,94.3,0c1.11,0,2.29-0.19,3.31,0.12
		c0.68,0.21,1.56,1.18,1.55,1.79c-0.01,0.6-0.95,1.45-1.65,1.69c-0.87,0.3-1.92,0.1-2.9,0.1C87.12,149.95,71.26,149.95,55.41,149.95
		z"/>
	<path class="st0" d="M165.98,186.46c-0.43-3.95-1.17-7.19,3.81-8.45c1.87-0.47,3.22-2.97,4.97-4.7c-2.79-1.6-6.18-2.45-6.48-3.93
		c-0.8-3.96-0.27-8.19-0.27-12.53c4.8,0,9.21,0,14.63,0c-0.38,6.04,0.04,12.23-1.33,18C179.58,182.11,173.48,185.14,165.98,186.46z"
		/>
	<path class="st0" d="M121.52,271.89c34.46,0,68.66,0,102.94,0c1.02,2.65,0.18,3.57-2.49,3.57c-32.71-0.04-65.41-0.04-98.12,0
		C121.34,275.47,120.58,274.52,121.52,271.89z"/>
	<path class="st0" d="M259.48,252.76c25.38,0,50.53,0,75.79,0c0.96,2.61,0.57,3.92-2.55,3.92c-23.52-0.06-47.04-0.07-70.57,0.02
		C259.29,256.7,258.79,255.5,259.48,252.76z"/>
	<path class="st0" d="M335.39,265.87c-25.38,0-50.55,0-75.79,0c-1-2.81-0.15-3.81,2.74-3.8c23.41,0.06,46.81,0.05,70.22,0
		C335.07,262.07,336.34,262.75,335.39,265.87z"/>
	<path class="st0" d="M88.22,273.34c-1.09,0.7-2.18,2.01-3.27,2.02c-26.15,0.11-52.29,0.07-78.44,0.12c-2.54,0-3.58-0.78-2.72-3.54
		c27.9,0,55.66,0,83.42,0C87.55,272.4,87.89,272.87,88.22,273.34z"/>
	<path class="st0" d="M259.54,271.87c1.11-0.05,2.06-0.14,3.02-0.14c23.12-0.01,46.24-0.03,69.36,0.07
		c1.27,0.01,2.54,1.14,3.81,1.75c-1.27,0.63-2.54,1.8-3.81,1.8c-22.98,0.11-45.96,0.08-68.95,0.08
		C260.88,275.44,258.4,275.88,259.54,271.87z"/>
	<path class="st0" d="M216.83,47.46c2.53-5.58,4.5-10.13,6.69-14.58c0.38-0.78,1.61-1.59,2.47-1.62c4.41-0.16,8.82-0.08,14.37-0.08
		c-4.97,5.53-8.93,10.73-13.77,14.91C224.72,47.71,220.85,47,216.83,47.46z"/>
	<path class="st0" d="M783.25,282.55c0,4.36,0,8.35,0,12.54c-4.32,0-8.45,0-12.91,0c0-4.04,0-8.13,0-12.54
		C774.5,282.55,778.73,282.55,783.25,282.55z"/>
	<path class="st0" d="M613.84,156.94c4.42,0,8.63,0,13.04,0c0,4.33,0,8.41,0,12.72c-4.4,0-8.62,0-13.04,0
		C613.84,165.37,613.84,161.29,613.84,156.94z"/>
	<path class="st0" d="M418.57,169.66c-4.16,0-8.27,0-12.73,0c0-4.11,0-8.29,0-12.73c4.17,0,8.26,0,12.73,0
		C418.57,161.1,418.57,165.27,418.57,169.66z"/>
	<path class="st0" d="M194.18,156.9c4.51,0,8.61,0,12.96,0c0,4.29,0,8.38,0,12.72c-4.28,0-8.5,0-12.96,0
		C194.18,165.44,194.18,161.35,194.18,156.9z"/>
	<path class="st0" d="M960.62,295.14c-4.48,0-8.61,0-13.01,0c0-4.21,0-8.3,0-12.65c4.32,0,8.56,0,13.01,0
		C960.62,286.71,960.62,290.7,960.62,295.14z"/>
	<path class="st0" d="M291.29,420.55c-4.41,0-8.65,0-13.15,0c0-4.17,0-8.13,0-12.41c4.36,0,8.59,0,13.15,0
		C291.29,412.21,291.29,416.26,291.29,420.55z"/>
</g>
</svg>
