<?xml version="1.0" encoding="utf-8"?>
<!-- Generator: Adobe Illustrator 26.3.1, SVG Export Plug-In . SVG Version: 6.00 Build 0)  -->
<svg version="1.1" id="Calque_1" xmlns="http://www.w3.org/2000/svg" xmlns:xlink="http://www.w3.org/1999/xlink" x="0px" y="0px"
	 viewBox="0 0 1080 1080" style="enable-background:new 0 0 1080 1080;" xml:space="preserve">
<style type="text/css">
	.st0{fill:#62C2D4;}
	.st1{fill:#4D959F;}
</style>
<g>
	<g>
		<g>
			<rect x="2.38" y="407.38" class="st0" width="265.24" height="265.24"/>
			<path class="st1" d="M265.24,409.76v260.47H4.76V409.76H265.24 M270,405H0v270h270V405L270,405z"/>
		</g>
		<g>
			<rect x="272.38" y="407.38" class="st0" width="265.24" height="265.24"/>
			<path class="st1" d="M535.24,409.76v260.47H274.76V409.76H535.24 M540,405H270v270h270V405L540,405z"/>
		</g>
		<g>
			<rect x="542.38" y="407.38" class="st0" width="265.24" height="265.24"/>
			<path class="st1" d="M805.24,409.76v260.47H544.76V409.76H805.24 M810,405H540v270h270V405L810,405z"/>
		</g>
		<g>
			<rect x="812.38" y="407.38" class="st0" width="265.24" height="265.24"/>
			<path class="st1" d="M1075.24,409.76v260.47H814.76V409.76H1075.24 M1080,405H810v270h270V405L1080,405z"/>
		</g>
	</g>
	<g>
		<path class="st1" d="M1066.38,418.62v242.76H810H540H270H13.62V418.62H270h270h270H1066.38 M1080,405H810H540H270H0v270h270h270
			h270h270V405L1080,405z"/>
	</g>
</g>
</svg>
