<?xml version="1.0" encoding="utf-8"?>
<!-- Generator: Adobe Illustrator 26.3.1, SVG Export Plug-In . SVG Version: 6.00 Build 0)  -->
<svg version="1.1" id="Calque_1" xmlns="http://www.w3.org/2000/svg" xmlns:xlink="http://www.w3.org/1999/xlink" x="0px" y="0px"
	 viewBox="0 0 1080 1080" style="enable-background:new 0 0 1080 1080;" xml:space="preserve">
<style type="text/css">
	.st0{fill:#E9E121;}
	.st1{fill:#9C931B;}
</style>
<g>
	<g>
		<rect x="4.76" y="4.76" class="st0" width="530.47" height="530.47"/>
		<path class="st1" d="M530.47,9.52v520.95H9.52V9.52H530.47 M540,0H0v540h540V0L540,0z"/>
	</g>
	<g>
		<rect x="544.76" y="4.76" class="st0" width="530.47" height="530.47"/>
		<path class="st1" d="M1070.47,9.52v520.95H549.52V9.52H1070.47 M1080,0H540v540h540V0L1080,0z"/>
	</g>
	<g>
		<rect x="544.76" y="544.76" class="st0" width="530.47" height="530.48"/>
		<path class="st1" d="M1070.47,549.52v520.95H549.52V549.52H1070.47 M1080,540H540v540h540V540L1080,540z"/>
	</g>
	<g>
		<rect x="4.76" y="544.76" class="st0" width="530.47" height="530.48"/>
		<path class="st1" d="M530.47,549.52v520.95H9.52V549.52H530.47 M540,540H0v540h540V540L540,540z"/>
	</g>
</g>
</svg>
