<?xml version="1.0" encoding="utf-8"?>
<!-- Generator: Adobe Illustrator 26.3.1, SVG Export Plug-In . SVG Version: 6.00 Build 0)  -->
<svg version="1.1" id="Calque_1" xmlns="http://www.w3.org/2000/svg" xmlns:xlink="http://www.w3.org/1999/xlink" x="0px" y="0px"
	 viewBox="0 0 1080 1080" style="enable-background:new 0 0 1080 1080;" xml:space="preserve">
<style type="text/css">
	.st0{fill:#1F4897;}
	.st1{fill:#1E3665;}
</style>
<g>
	<g>
		<g>
			<rect x="3.17" y="723.17" class="st0" width="353.65" height="353.65"/>
			<path class="st1" d="M6.35,726.35l347.3,0l0,347.3l-347.3,0L6.35,726.35 M0,720l0,360l360,0l0-360L0,720L0,720z"/>
		</g>
		<g>
			<rect x="3.17" y="363.17" class="st0" width="353.65" height="353.65"/>
			<path class="st1" d="M6.35,366.35l347.3,0l0,347.3l-347.3,0L6.35,366.35 M0,360l0,360l360,0l0-360L0,360L0,360z"/>
		</g>
		<g>
			<rect x="3.18" y="3.17" class="st0" width="353.65" height="353.65"/>
			<path class="st1" d="M6.35,6.35l347.3,0l0,347.3l-347.3,0L6.35,6.35 M0,0l0,360l360,0l0-360L0,0L0,0z"/>
		</g>
		<g>
			<rect x="363.18" y="3.17" class="st0" width="353.65" height="353.65"/>
			<path class="st1" d="M366.35,6.35l347.3,0l0,347.3l-347.3,0L366.35,6.35 M360,0l0,360l360,0l0-360L360,0L360,0z"/>
		</g>
	</g>
	<g>
		<path class="st1" d="M360,0v18.16l341.84,0v323.68H360h-18.16V360v360v341.84H18.16V720l0-360V18.16H360V0 M360,0H0v360l0,360v360
			h360V720V360h360V0L360,0L360,0z"/>
	</g>
</g>
</svg>
